<svg xmlns="http://www.w3.org/2000/svg" xmlns:xlink="http://www.w3.org/1999/xlink">
  <defs>
    <pattern id="grid" x="0" y="0" width="20" height="20" patternUnits="userSpaceOnUse">
      <rect width="20" height="20" fill="#DBE5EA"/>
      <line x1="10" x2="10" y1="0" y2="20" stroke="#c4d1dc" stroke-width="1"/>
      <line x1="0" x2="20" y1="10" y2="10" stroke="#c4d1dc" stroke-width="1"/>
    </pattern>
    <g id="corner">
      <circle cx="44" cy="44" r="24" fill="#DBE5EA" stroke="#DBE5EA" stroke-width="10"/>
      <circle cx="44" cy="44" r="24" fill="none" stroke="#7e92ab" stroke-width="3"/>
      <line x1="44" x2="44" y1="20" y2="68" stroke="#7e92ab" stroke-width="3"/>
      <line x1="20" x2="68" y1="44" y2="44" stroke="#7e92ab" stroke-width="3"/>
    </g>
    <g id="main" stroke-linecap="round">
      <circle cx="200" cy="150" r="140" fill="none"/>
      <circle cx="200" cy="150" r="70" fill="#DBE5EA"/>
      <line x1="110" x2="140" y1="60" y2="90"/>
      <line x1="290" x2="260" y1="60" y2="90"/>
      <line x1="290" x2="260" y1="240" y2="210"/>
      <line x1="110" x2="140" y1="240" y2="210"/>
      <line x1="110" x2="110" y1="90" y2="210" stroke-dasharray="3,6"/>
      <line x1="290" x2="290" y1="90" y2="210" stroke-dasharray="3,6"/>
      <line x1="130" x2="270" y1="240" y2="240"/>
      <line x1="150" x2="250" y1="250" y2="250"/>
      <line x1="170" x2="230" y1="260" y2="260"/>
      <line x1="190" x2="210" y1="270" y2="270"/>
    </g>
    <symbol id="logo" viewBox="0 0 24 24">
      <path d="M6.75,15.12a4.36,4.36,0,0,1-1.91-2.29,1.86,1.86,0,0,1,.52-1c0.48-.55,6.07-6.63,8.44-7.67A11.75,11.75,0,0,0,11.92,4c-7,0-7.67,5-7.67,5S0,10.3,0,14.18C0,19.73,6.84,20,6.84,20A15.3,15.3,0,0,0,9,19.92a1.29,1.29,0,0,0,.89-0.71c0.41-1,1-2.59,1.58-4.26C9.2,15.06,7,15.17,6.75,15.12Z"/>
      <path d="M24,13c0-4.91-4.81-5.44-4.81-5.44a6.11,6.11,0,0,0-2.14-2.2c-0.43,1.53-1.54,5.61-1.6,6.38h1.68s0.27,0,.2.33c-0.16.75-.58,2.58-1.48,2.64l-1.18.07c-0.33,1.35-.68,2.76-0.93,3.78a4.7,4.7,0,0,0,3,.91,4.59,4.59,0,0,0,3.35-1.23C24.14,17.56,24,13,24,13Z"/>
      <path d="M13.89,6.86A42.33,42.33,0,0,0,8.9,12l3.61-.14c0.74-2.08,1.38-3.93,1.66-4.74A0.3,0.3,0,0,0,13.89,6.86Z"/>
    </symbol>
  </defs>
  <rect fill="url(#grid)" width="100%" height="100%"/>
  <svg viewBox="50 0 300 300">
    <use xlink:href="#main" stroke="#DBE5EA" stroke-width="10"/>
    <use xlink:href="#main" stroke="#7e92ab" stroke-width="3"/>
    <circle cx="200" cy="46" r="26" fill="#DBE5EA"/>
    <use xlink:href="#logo" width="40" height="40" x="180" y="26" fill="#7e92ab"/>
    <g>
      <polygon points="227 183.5 173 183.5 173 117.5 213 117.5 227 131.5 227 183.5" fill="#7e92ab" stroke="#7e92ab" stroke-linecap="round" stroke-linejoin="round" stroke-width="6"/>
      <polygon points="227 183.5 173 183.5 173 117.5 213 117.5 227 131.5 227 183.5" fill="#dbe5ea"/>
      <rect x="179" y="123.5" width="42" height="54" fill="#c4d1dc"/>
      <polygon points="228 130.5 228 132.5 212 132.5 212 116.5 214 116.5 228 130.5" fill="#dbe5ea" stroke="#7e92ab" stroke-linecap="round" stroke-linejoin="round" stroke-width="3"/>
      <polygon points="202 168 186 168 186 152 202 168" fill="#7e92ab"/>
      <circle cx="194" cy="140.5" r="7" fill="#7e92ab"/>
      <rect x="206" y="146" width="12" height="12" fill="#7e92ab"/>
      <polygon points="199 165 183 165 183 149 199 165" fill="#dbe5ea"/>
      <circle cx="191" cy="137.5" r="7" fill="#dbe5ea"/>
      <rect x="203" y="143" width="12" height="12" fill="#dbe5ea"/>
      <polyline points="188.25 189.5 194 168.17 207.75 178.5 212 160 221 166 233.75 154.5" fill="none" stroke="#dbe5ea" stroke-miterlimit="10" stroke-width="6"/>
    </g>
  </svg>
  <svg viewBox="0 0 400 300" preserveAspectRatio="xMinYMin">
    <use xlink:href="#corner"/>
  </svg>
  <svg viewBox="0 0 400 300" preserveAspectRatio="xMaxYMax">
    <use xlink:href="#corner" x="312" y="212"/>
  </svg>
  <svg viewBox="0 0 400 300" preserveAspectRatio="xMaxYMin">
    <use xlink:href="#corner" x="312"/>
  </svg>
  <svg viewBox="0 0 400 300" preserveAspectRatio="xMinYMax">
    <use xlink:href="#corner" y="212"/>
  </svg>
</svg>
