<svg xmlns="http://www.w3.org/2000/svg" width="800" height="450" viewBox="0 0 800 450">
  <rect width="800" height="450" fill="#f26941"/>
  <path d="M559.06,64.07c-3.71-1.84-8.13-1.33-12.2,1a8.7,8.7,0,0,1-8.12.12h0a7.81,7.81,0,0,1-3.53-10.46l18.74-37.81a4,4,0,0,0-1.81-5.36L514.3-7.21a7.8,7.8,0,0,0-10.46,3.52v0A8.7,8.7,0,0,0,504,4.46c2.3,4.08,2.81,8.49,1,12.2-3.54,7.15-14.44,9-24.33,4.06s-15-14.67-11.51-21.82c1.84-3.71,5.66-6,10.29-6.61a8.75,8.75,0,0,0,6.54-4.83v0A7.79,7.79,0,0,0,482.4-23L444.58-41.76a4,4,0,0,0-5.36,1.81L420.49-2.13A7.8,7.8,0,0,1,410,1.39h0a9,9,0,0,1-4.93-6.63c-.68-4.53-3-8.17-6.62-10-7.14-3.54-16.93,1.65-21.84,11.55s-3.09,20.81,4.06,24.35c3.77,1.87,8.33,1.16,12.45-1.22a8.49,8.49,0,0,1,8-.15h0a7.8,7.8,0,0,1,3.52,10.46L386,67.58a4,4,0,0,0,1.81,5.36l37.81,18.73a7.8,7.8,0,0,1,3.52,10.46v0a8.69,8.69,0,0,1-6.54,4.82c-4.63.64-8.45,2.91-10.29,6.62-3.54,7.14,1.61,16.91,11.51,21.82s20.79,3.08,24.33-4.07c1.84-3.71,1.33-8.12-1-12.19A8.7,8.7,0,0,1,447,111l0,0a7.8,7.8,0,0,1,10.45-3.53l37.81,18.73a4,4,0,0,0,5.36-1.8l18.74-37.82a7.79,7.79,0,0,1,10.45-3.52h0a8.69,8.69,0,0,1,4.82,6.54c.64,4.63,2.91,8.45,6.62,10.29,7.15,3.54,16.92-1.61,21.82-11.51S566.21,67.61,559.06,64.07Z" fill="#ffa44a"/>
  <path d="M210.59,26.84a9,9,0,0,0,8.25.42c4.15-2,8.45-2.07,12-.05,6.91,4,8,15,2.54,24.57S217.78,65.92,210.86,62c-3.64-2.09-5.59-6.28-5.91-11a8.5,8.5,0,0,0-4.32-6.74h0A7.8,7.8,0,0,0,190,47.05l-21,36.59a4,4,0,0,0,1.48,5.46l36.59,21a7.8,7.8,0,0,1,2.88,10.65l0,0a8.72,8.72,0,0,1-6.82,4.41c-4.66.36-8.61,2.38-10.67,6-4,6.92.57,17,10.15,22.49s20.56,4.35,24.53-2.57c2.06-3.59,1.82-8-.22-12.23a8.7,8.7,0,0,1,.38-8.11v0a7.8,7.8,0,0,1,10.65-2.88l36.6,21a4,4,0,0,0,5.46-1.47l21-36.6a7.8,7.8,0,0,0-2.88-10.65h0a8.55,8.55,0,0,0-8-.34c-4.26,2.12-8.81,2.48-12.46.39-6.92-4-8.09-14.92-2.59-24.5s15.56-14.11,22.48-10.13c3.54,2,5.63,5.75,6,10.32a8.92,8.92,0,0,0,4.51,6.9l0,0a7.81,7.81,0,0,0,10.65-2.88l21-36.6a4,4,0,0,0-1.48-5.46l-36.59-21A7.79,7.79,0,0,1,298.75,6.2v0a8.67,8.67,0,0,1,6.82-4.41c4.67-.36,8.62-2.39,10.68-6,4-6.92-.57-17-10.15-22.48s-20.56-4.36-24.54,2.56c-2.06,3.59-1.82,8,.23,12.24a8.7,8.7,0,0,1-.38,8.11l0,0A7.8,7.8,0,0,1,270.75-.88l-36.59-21a4,4,0,0,0-5.46,1.48l-21,36.59a7.81,7.81,0,0,0,2.88,10.65Z" fill="#ffa44a"/>
  <path d="M236.35,197a8.72,8.72,0,0,0,2.28,7.8c3.3,3.31,5,7.43,4.19,11.49-1.5,7.84-11.51,12.5-22.36,10.41S202,216.55,203.54,208.72c.78-4.07,3.86-7.27,8.16-9.13a8.7,8.7,0,0,0,5-6.39h0a7.84,7.84,0,0,0-6.22-9.17l-41.41-8a4,4,0,0,0-4.68,3.18l-8,41.4a7.83,7.83,0,0,1-9.17,6.22h0a8.72,8.72,0,0,1-6.39-5c-1.85-4.29-5.06-7.37-9.12-8.15-7.84-1.51-15.88,6.07-18,16.91s2.58,20.86,10.41,22.37c4.07.78,8.18-.89,11.49-4.19a8.7,8.7,0,0,1,7.8-2.29h0a7.83,7.83,0,0,1,6.21,9.17l-8,41.41a4,4,0,0,0,3.17,4.68l41.41,8a7.83,7.83,0,0,0,9.17-6.22h0a8.71,8.71,0,0,0-2.28-7.79c-3.3-3.31-5-7.43-4.19-11.5,1.5-7.83,11.52-12.49,22.36-10.41s18.42,10.13,16.92,18c-.78,4.07-3.86,7.27-8.15,9.12a8.73,8.73,0,0,0-5,6.4h0a7.84,7.84,0,0,0,6.22,9.17l41.41,8a4,4,0,0,0,4.68-3.17l8-41.41a7.84,7.84,0,0,0-6.22-9.17h0a8.71,8.71,0,0,0-7.79,2.28c-3.32,3.31-7.43,5-11.5,4.2-7.83-1.51-12.49-11.52-10.41-22.37s10.12-18.42,18-16.92c4.06.79,7.27,3.86,9.12,8.16a8.72,8.72,0,0,0,6.39,5h0a7.85,7.85,0,0,0,9.18-6.22l8-41.41a4,4,0,0,0-3.17-4.68l-41.41-8a7.82,7.82,0,0,0-9.17,6.21Z" fill="#ffa44a"/>
  <path d="M121.84,126.69a8.71,8.71,0,0,0-6.9,4.3c-2.3,4.07-5.81,6.78-9.94,7.13-8,.65-15.13-7.74-16-18.75s4.79-20.46,12.74-21.12c4.13-.34,8,1.76,11,5.4a8.72,8.72,0,0,0,7.51,3.11h0a7.84,7.84,0,0,0,7.16-8.46l-3.47-42a4,4,0,0,0-4.32-3.66l-42,3.48a7.84,7.84,0,0,1-8.46-7.16h0a8.72,8.72,0,0,1,3.11-7.51c3.64-2.94,5.74-6.85,5.4-11C76.93,22.5,67.47,16.8,56.47,17.71s-19.4,8.09-18.74,16c.34,4.13,3.05,7.64,7.12,9.94a8.68,8.68,0,0,1,4.3,6.89h0A7.84,7.84,0,0,1,42,59L0,62.51a4,4,0,0,0-3.66,4.32l3.48,42a7.85,7.85,0,0,1-7.17,8.46h0a8.72,8.72,0,0,1-7.5-3.11c-2.94-3.64-6.86-5.74-11-5.4-8,.66-13.66,10.11-12.75,21.12s8.1,19.4,16.05,18.74c4.12-.34,7.64-3,9.94-7.12a8.67,8.67,0,0,1,6.89-4.3h0a7.84,7.84,0,0,1,8.46,7.16l3.47,42a4,4,0,0,0,4.32,3.66l42-3.48A7.83,7.83,0,0,1,61,193.77h0a8.71,8.71,0,0,1-3.1,7.5c-3.64,2.94-5.74,6.85-5.4,11,.65,7.95,10.11,13.66,21.12,12.75S93,216.9,92.35,209c-.34-4.12-3.06-7.64-7.13-9.94a8.73,8.73,0,0,1-4.3-6.89h0a7.85,7.85,0,0,1,7.17-8.46l42-3.47a4,4,0,0,0,3.66-4.32l-3.48-42a7.83,7.83,0,0,0-8.45-7.16Z" fill="#ffa44a"/>
  <path d="M72,289.65a8.72,8.72,0,0,0-6.51,4.87c-2,4.25-5.23,7.25-9.31,7.94-7.87,1.32-15.73-6.44-17.56-17.33s3.06-20.8,10.93-22.12c4.08-.69,8.16,1.08,11.39,4.46a8.68,8.68,0,0,0,7.74,2.46h0a7.84,7.84,0,0,0,6.43-9l-7-41.59a4,4,0,0,0-4.6-3.28l-41.59,7a7.83,7.83,0,0,0-6.42,9h0a8.68,8.68,0,0,0,4.86,6.51c4.25,2,7.25,5.23,7.94,9.31,1.32,7.87-6.44,15.73-17.33,17.56s-20.79-3.06-22.12-10.93c-.68-4.08,1.08-8.16,4.46-11.39a8.68,8.68,0,0,0,2.46-7.74h0a7.83,7.83,0,0,0-9-6.43l-41.58,7a4,4,0,0,0-3.28,4.6l7,41.58a7.84,7.84,0,0,1-6.43,9h0a8.7,8.7,0,0,1-7.74-2.46c-3.23-3.38-7.31-5.15-11.39-4.46-7.87,1.32-12.76,11.22-10.93,22.12s9.7,18.65,17.56,17.32c4.09-.68,7.36-3.68,9.31-7.93a8.72,8.72,0,0,1,6.51-4.87h0a7.84,7.84,0,0,1,9,6.43l7,41.58a4,4,0,0,0,4.61,3.28l41.58-7a7.84,7.84,0,0,0,6.43-9h0a8.7,8.7,0,0,0-4.87-6.5c-4.25-2-7.25-5.23-7.94-9.31C.24,322.47,8,314.61,18.89,312.78S39.69,315.84,41,323.7c.69,4.09-1.08,8.16-4.46,11.4a8.68,8.68,0,0,0-2.46,7.74h0a7.83,7.83,0,0,0,9,6.42l41.59-7A4,4,0,0,0,88,337.66l-7-41.58a7.83,7.83,0,0,0-9-6.43Z" fill="#ffa44a"/>
  <path d="M245.1,501.41a8.7,8.7,0,0,0-4.95-6.44c-4.27-1.9-7.32-5.13-8.06-9.2-1.42-7.85,6.23-15.82,17.1-17.79s20.84,2.79,22.26,10.64c.74,4.07-1,8.17-4.31,11.45a8.72,8.72,0,0,0-2.36,7.77v0a7.8,7.8,0,0,0,9.07,6.28l41.52-7.54a4,4,0,0,0,3.22-4.65l-7.54-41.52a7.81,7.81,0,0,1,6.28-9.07h0a8.56,8.56,0,0,1,7.69,2.38c3.3,3.42,7.48,5.29,11.62,4.54,7.84-1.43,12.61-11.35,10.64-22.22s-9.93-18.5-17.78-17.08c-4,.73-7.24,3.54-9.15,7.71a8.92,8.92,0,0,1-6.55,5h0a7.81,7.81,0,0,1-9.07-6.28l-7.54-41.53a4,4,0,0,0-4.65-3.22L251,378.21a7.8,7.8,0,0,0-6.28,9.07v0a8.68,8.68,0,0,0,4.94,6.44c4.28,1.9,7.32,5.13,8.06,9.21,1.43,7.85-6.23,15.81-17.1,17.78s-20.83-2.79-22.26-10.64c-.73-4.07,1-8.17,4.31-11.45a8.7,8.7,0,0,0,2.37-7.77v0a7.8,7.8,0,0,0-9.07-6.28l-41.52,7.54a4,4,0,0,0-3.22,4.65l7.54,41.52a7.8,7.8,0,0,1-6.28,9.07h0a8.69,8.69,0,0,1-7.77-2.36c-3.28-3.34-7.38-5.05-11.46-4.31-7.84,1.43-12.61,11.39-10.63,22.26s9.93,18.52,17.78,17.1c4.08-.74,7.31-3.79,9.21-8.06A8.7,8.7,0,0,1,176,467h0a7.79,7.79,0,0,1,9.06,6.28l7.55,41.52a4,4,0,0,0,4.65,3.22l41.52-7.54a7.81,7.81,0,0,0,6.28-9.07Z" fill="#ffa44a"/>
  <path d="M57.58,351.17a9,9,0,0,0,7.51-3.45c2.77-3.64,6.52-5.74,10.59-5.58,8,.32,14.07,9.57,13.63,20.61s-7.26,19.74-15.24,19.42c-4.2-.17-7.87-3-10.34-7a8.49,8.49,0,0,0-6.95-4h0a7.79,7.79,0,0,0-8.11,7.48L47,420.8A4,4,0,0,0,50.79,425L93,426.65a7.79,7.79,0,0,1,7.48,8.11v0a8.68,8.68,0,0,1-4,7.07c-4,2.47-6.53,6.1-6.7,10.24-.32,8,8.37,14.79,19.41,15.23s20.24-5.66,20.56-13.63c.16-4.14-2.1-8-5.86-10.74a8.7,8.7,0,0,1-3.42-7.37v0a7.79,7.79,0,0,1,8.1-7.48l42.17,1.69a4,4,0,0,0,4.16-3.84l1.69-42.17a7.8,7.8,0,0,0-7.48-8.1h0a8.51,8.51,0,0,0-7.28,3.42c-2.79,3.85-6.67,6.28-10.87,6.11-8-.32-14.07-9.49-13.63-20.52s7.26-19.71,15.23-19.39c4.08.17,7.66,2.5,10.13,6.37a8.93,8.93,0,0,0,7.19,4h0a7.79,7.79,0,0,0,8.1-7.48L179.65,306a4,4,0,0,0-3.83-4.16l-42.17-1.69a7.8,7.8,0,0,1-7.48-8.11v0a8.7,8.7,0,0,1,4-7.07c4-2.47,6.54-6.1,6.7-10.24.32-8-8.37-14.79-19.4-15.23s-20.25,5.66-20.57,13.63c-.16,4.14,2.1,8,5.86,10.74a8.71,8.71,0,0,1,3.43,7.37v0a7.79,7.79,0,0,1-8.1,7.48l-42.17-1.69a4,4,0,0,0-4.16,3.84l-1.68,42.17a7.79,7.79,0,0,0,7.48,8.1Z" fill="#ffa44a"/>
  <path d="M368.61,126.3a8.71,8.71,0,0,0,4.8,6.55c4.24,2,7.21,5.29,7.86,9.38,1.25,7.88-6.58,15.67-17.49,17.4s-20.77-3.25-22-11.13c-.65-4.09,1.16-8.15,4.56-11.35a8.71,8.71,0,0,0,2.54-7.72h0a7.84,7.84,0,0,0-9-6.51l-41.64,6.61a4,4,0,0,0-3.32,4.58l6.61,41.64a7.84,7.84,0,0,1-6.51,9h0a8.73,8.73,0,0,1-7.72-2.53c-3.2-3.41-7.26-5.22-11.35-4.57-7.88,1.25-12.86,11.11-11.13,22s9.52,18.74,17.4,17.49c4.09-.65,7.39-3.62,9.38-7.85a8.7,8.7,0,0,1,6.55-4.81h0a7.84,7.84,0,0,1,9,6.51l6.61,41.65a4,4,0,0,0,4.58,3.32L360,249.34a7.83,7.83,0,0,0,6.51-9h0a8.69,8.69,0,0,0-4.8-6.55c-4.23-2-7.2-5.29-7.85-9.38-1.25-7.88,6.58-15.67,17.49-17.4s20.76,3.25,22,11.13c.65,4.09-1.15,8.14-4.56,11.35a8.72,8.72,0,0,0-2.53,7.72h0a7.84,7.84,0,0,0,9,6.51l41.65-6.62a4,4,0,0,0,3.32-4.57l-6.61-41.65a7.84,7.84,0,0,0-9-6.51h0a8.71,8.71,0,0,0-6.55,4.8c-2,4.24-5.29,7.21-9.38,7.86-7.88,1.25-15.67-6.58-17.4-17.49s3.25-20.77,11.13-22c4.09-.65,8.14,1.16,11.35,4.56a8.7,8.7,0,0,0,7.72,2.54h0a7.84,7.84,0,0,0,6.51-9L421.34,114a4,4,0,0,0-4.57-3.32l-41.65,6.61a7.84,7.84,0,0,0-6.51,9Z" fill="#ffa44a"/>
  <path d="M463.27,369.15a8.72,8.72,0,0,0-7.59,2.88c-3.05,3.55-7,5.54-11.13,5.08-7.93-.89-13.36-10.51-12.12-21.49s8.66-19.15,16.58-18.26c4.12.46,7.55,3.28,9.73,7.42a8.72,8.72,0,0,0,6.77,4.49h0a7.83,7.83,0,0,0,8.66-6.91l4.71-41.9a4,4,0,0,0-3.53-4.42l-41.9-4.71a7.83,7.83,0,0,1-6.91-8.66h0a8.69,8.69,0,0,1,4.5-6.76c4.13-2.18,6.95-5.62,7.41-9.73.89-7.93-7.28-15.36-18.26-16.59s-20.6,4.19-21.49,12.12c-.46,4.12,1.53,8.09,5.08,11.13a8.73,8.73,0,0,1,2.88,7.6h0a7.83,7.83,0,0,1-8.66,6.91l-41.9-4.71a4,4,0,0,0-4.42,3.53L347,328.07a7.83,7.83,0,0,1-8.66,6.91h0a8.71,8.71,0,0,1-6.77-4.5c-2.18-4.13-5.61-7-9.72-7.42-7.93-.89-15.36,7.29-16.59,18.27s4.19,20.59,12.12,21.48c4.11.47,8.09-1.52,11.13-5.07a8.7,8.7,0,0,1,7.59-2.89h0a7.86,7.86,0,0,1,6.92,8.67l-4.71,41.9a4,4,0,0,0,3.52,4.42l41.91,4.71a7.83,7.83,0,0,1,6.91,8.66h0a8.72,8.72,0,0,1-4.5,6.76c-4.14,2.18-7,5.62-7.42,9.73-.89,7.93,7.29,15.36,18.26,16.59s20.6-4.19,21.49-12.12c.46-4.12-1.52-8.09-5.07-11.13a8.71,8.71,0,0,1-2.89-7.6h0a7.84,7.84,0,0,1,8.66-6.91l41.9,4.71a4,4,0,0,0,4.43-3.53l4.7-41.9a7.83,7.83,0,0,0-6.91-8.66Z" fill="#ffa44a"/>
  <path d="M653.75,309.35a8.71,8.71,0,0,0-7.29,3.59c-2.7,3.82-6.47,6.17-10.61,6.1-8-.14-14.28-9.21-14.08-20.26s6.82-19.88,14.79-19.74c4.14.08,7.83,2.56,10.39,6.48a8.72,8.72,0,0,0,7.15,3.84h0a7.85,7.85,0,0,0,8-7.7l.75-42.15a4,4,0,0,0-3.93-4.08l-42.16-.75a7.85,7.85,0,0,0-8,7.7h0a8.72,8.72,0,0,0,3.58,7.29c3.82,2.7,6.18,6.46,6.1,10.6-.14,8-9.21,14.29-20.25,14.09s-19.88-6.82-19.74-14.8c.07-4.14,2.56-7.82,6.47-10.38a8.7,8.7,0,0,0,3.84-7.16h0a7.84,7.84,0,0,0-7.69-8l-42.16-.75a4,4,0,0,0-4.07,3.93l-.75,42.15a7.84,7.84,0,0,1-8,7.7h0a8.72,8.72,0,0,1-7.15-3.84c-2.56-3.92-6.25-6.4-10.38-6.48-8-.14-14.61,8.7-14.8,19.74s6.11,20.12,14.08,20.26c4.14.07,7.91-2.28,10.61-6.1a8.67,8.67,0,0,1,7.29-3.58h0a7.82,7.82,0,0,1,7.69,8l-.75,42.16a4,4,0,0,0,3.93,4.07l42.16.75a7.84,7.84,0,0,0,8-7.7h0a8.69,8.69,0,0,0-3.58-7.28c-3.82-2.7-6.17-6.47-6.1-10.61.14-8,9.21-14.28,20.25-14.09s19.88,6.82,19.74,14.8c-.07,4.14-2.56,7.82-6.47,10.38a8.7,8.7,0,0,0-3.84,7.16h0a7.82,7.82,0,0,0,7.69,8l42.16.75a4,4,0,0,0,4.07-3.92l.75-42.16a7.84,7.84,0,0,0-7.69-8Z" fill="#ffa44a"/>
  <path d="M580.53,481.25a8.71,8.71,0,0,0-5.18-6.26c-4.34-1.75-7.5-4.87-8.38-8.91-1.71-7.8,5.66-16,16.45-18.39s20.92,2,22.62,9.83c.89,4.05-.68,8.2-3.89,11.6a8.71,8.71,0,0,0-2.09,7.85v0a7.81,7.81,0,0,0,9.29,5.95l41.22-9a4,4,0,0,0,3.06-4.77l-9-41.22a7.81,7.81,0,0,1,6-9.29h0a8.51,8.51,0,0,1,7.76,2.1c3.43,3.3,7.67,5,11.77,4.12,7.79-1.71,12.21-11.8,9.84-22.59s-10.58-18.13-18.38-16.43c-4,.88-7.1,3.8-8.86,8a9,9,0,0,1-6.38,5.22h0a7.8,7.8,0,0,1-9.29-5.95L628,352a4,4,0,0,0-4.76-3.05l-41.23,9a7.8,7.8,0,0,0-6,9.29v0a8.69,8.69,0,0,0,5.17,6.26c4.34,1.74,7.5,4.87,8.38,8.91,1.71,7.79-5.65,16-16.44,18.39s-20.92-2-22.63-9.84c-.89-4,.68-8.2,3.9-11.59a8.72,8.72,0,0,0,2.08-7.85v0a7.8,7.8,0,0,0-9.29-6l-41.22,9a4,4,0,0,0-3.05,4.76l9,41.23a7.8,7.8,0,0,1-5.95,9.29h0a8.7,8.7,0,0,1-7.85-2.08c-3.39-3.22-7.55-4.78-11.59-3.9-7.8,1.71-12.2,11.84-9.84,22.63s10.6,18.15,18.39,16.45c4-.89,7.17-4.05,8.91-8.39a8.69,8.69,0,0,1,6.26-5.17h0a7.81,7.81,0,0,1,9.29,6l9,41.22a4,4,0,0,0,4.76,3l41.22-9a7.79,7.79,0,0,0,5.95-9.29Z" fill="#ffa44a"/>
  <path d="M799.6,345.2a8.73,8.73,0,0,0,4.89,6.49c4.25,1.94,7.27,5.2,8,9.28,1.35,7.86-6.38,15.75-17.27,17.62s-20.8-3-22.15-10.86c-.7-4.08,1.05-8.16,4.42-11.41a8.7,8.7,0,0,0,2.44-7.75h0a7.82,7.82,0,0,0-9-6.39l-41.56,7.12a4,4,0,0,0-3.27,4.62l7.13,41.56a7.84,7.84,0,0,1-6.4,9h0a8.67,8.67,0,0,1-7.75-2.44c-3.25-3.36-7.33-5.12-11.41-4.42-7.86,1.35-12.72,11.27-10.86,22.16s9.76,18.62,17.62,17.27c4.08-.7,7.35-3.72,9.28-8a8.7,8.7,0,0,1,6.5-4.88h0a7.83,7.83,0,0,1,9,6.4l7.13,41.55a4,4,0,0,0,4.62,3.27l41.55-7.12a7.84,7.84,0,0,0,6.4-9h0A8.68,8.68,0,0,0,794,452.8c-4.25-1.94-7.27-5.21-8-9.29-1.35-7.86,6.39-15.75,17.27-17.61s20.81,3,22.16,10.85c.7,4.08-1.06,8.17-4.42,11.41a8.67,8.67,0,0,0-2.44,7.75h0a7.84,7.84,0,0,0,9,6.4l41.56-7.13a4,4,0,0,0,3.27-4.62L865.33,409a7.83,7.83,0,0,0-9-6.4h0a8.7,8.7,0,0,0-6.5,4.88c-1.94,4.26-5.2,7.27-9.28,8-7.86,1.35-15.75-6.39-17.62-17.27s3-20.81,10.86-22.16c4.08-.7,8.16,1.06,11.41,4.42a8.71,8.71,0,0,0,7.75,2.45h0a7.84,7.84,0,0,0,6.39-9l-7.12-41.56a4,4,0,0,0-4.62-3.27L806,336.15a7.84,7.84,0,0,0-6.4,9.05Z" fill="#ffa44a"/>
  <path d="M608.89,189.16a8.74,8.74,0,0,0-6.86,4.35c-2.27,4.09-5.76,6.84-9.89,7.21-7.94.72-15.19-7.62-16.18-18.62s4.64-20.5,12.58-21.22c4.13-.37,8.06,1.7,11,5.32a8.75,8.75,0,0,0,7.53,3.05h0a7.84,7.84,0,0,0,7.1-8.51l-3.8-42a4,4,0,0,0-4.34-3.62l-42,3.8a7.84,7.84,0,0,1-8.51-7.1h0a8.69,8.69,0,0,1,3.05-7.53c3.61-3,5.68-6.9,5.31-11-.72-8-10.22-13.58-21.22-12.59s-19.34,8.25-18.62,16.19c.38,4.12,3.12,7.62,7.21,9.89a8.71,8.71,0,0,1,4.35,6.86h0a7.84,7.84,0,0,1-7.1,8.51l-42,3.79a4,4,0,0,0-3.63,4.35l3.8,42a7.84,7.84,0,0,1-7.1,8.51h0a8.7,8.7,0,0,1-7.53-3.05c-3-3.61-6.89-5.69-11-5.31-7.94.72-13.58,10.22-12.58,21.22s8.24,19.33,16.18,18.61c4.13-.37,7.62-3.11,9.89-7.2a8.72,8.72,0,0,1,6.86-4.35h0a7.84,7.84,0,0,1,8.51,7.1l3.8,42a4,4,0,0,0,4.34,3.62l42-3.79a7.83,7.83,0,0,1,8.5,7.1h0a8.67,8.67,0,0,1-3,7.52c-3.61,3-5.68,6.9-5.31,11,.72,7.95,10.22,13.58,21.22,12.59s19.34-8.24,18.62-16.19c-.37-4.12-3.12-7.61-7.21-9.89a8.71,8.71,0,0,1-4.35-6.85h0a7.84,7.84,0,0,1,7.1-8.51l42-3.8a4,4,0,0,0,3.63-4.34l-3.8-42a7.84,7.84,0,0,0-8.51-7.1Z" fill="#ffa44a"/>
  <path d="M718,3.58A8.74,8.74,0,0,0,711.87,9c-1.58,4.4-4.59,7.66-8.6,8.69-7.73,2-16.22-5.08-19-15.78s1.29-21,9-23c4-1,8.22.38,11.73,3.48a8.72,8.72,0,0,0,7.92,1.8h0a7.82,7.82,0,0,0,5.64-9.53L708.15-66.17A4,4,0,0,0,703.28-69L662.44-58.58A7.84,7.84,0,0,0,656.8-49h0A8.67,8.67,0,0,0,662.19-43c4.4,1.59,7.67,4.6,8.69,8.61,2,7.73-5.08,16.22-15.78,19s-21-1.3-23-9c-1-4,.39-8.23,3.48-11.73a8.73,8.73,0,0,0,1.8-7.92h0a7.84,7.84,0,0,0-9.53-5.65L587-39.24a4,4,0,0,0-2.88,4.86L594.64,6.47A7.84,7.84,0,0,1,589,16h0a8.73,8.73,0,0,1-7.92-1.8c-3.51-3.09-7.72-4.51-11.73-3.48-7.72,2-11.77,12.26-9,23s11.23,17.77,19,15.78c4-1,7-4.29,8.6-8.69A8.7,8.7,0,0,1,594,35.38h0A7.82,7.82,0,0,1,603.49,41L614,81.86a4,4,0,0,0,4.87,2.88l40.84-10.47a7.82,7.82,0,0,0,5.64-9.53h0a8.7,8.7,0,0,0-5.39-6.08c-4.4-1.59-7.67-4.59-8.7-8.6-2-7.73,5.09-16.22,15.79-19s21,1.29,23,9c1,4-.39,8.22-3.48,11.73a8.67,8.67,0,0,0-1.8,7.92h0a7.82,7.82,0,0,0,9.53,5.64l40.84-10.47A4,4,0,0,0,738,50.07L727.48,9.23A7.84,7.84,0,0,0,718,3.58Z" fill="#ffa44a"/>
  <path d="M112.87,55.9a8.69,8.69,0,0,0-7.62-2.79c-4.63.69-8.93-.41-11.74-3.45C88.1,43.8,90.29,33,98.4,25.48s19.09-8.81,24.5-2.95c2.81,3,3.56,7.42,2.5,12a8.69,8.69,0,0,0,2.17,7.82h0a7.83,7.83,0,0,0,11.07.44l31-28.6a4,4,0,0,0,.23-5.65l-28.6-31a7.83,7.83,0,0,0-11.07-.44h0a8.7,8.7,0,0,0-2.79,7.63c.69,4.62-.41,8.93-3.45,11.74-5.86,5.41-16.69,3.21-24.18-4.9s-8.82-19.08-3-24.5c3-2.8,7.42-3.55,12-2.5a8.69,8.69,0,0,0,7.83-2.17h0a7.83,7.83,0,0,0,.44-11.07l-28.6-31a4,4,0,0,0-5.65-.23l-31,28.6a7.83,7.83,0,0,1-11.07-.44h0a8.7,8.7,0,0,1-2.18-7.82c1.06-4.56.31-8.94-2.5-12-5.41-5.86-16.37-4.54-24.49,3S1.27-50.25,6.68-44.39c2.81,3,7.11,4.14,11.74,3.45a8.7,8.7,0,0,1,7.63,2.79h0a7.83,7.83,0,0,1-.44,11.07l-31,28.6A4,4,0,0,0-5.6,7.17l28.6,31a7.84,7.84,0,0,0,11.07.44h0A8.72,8.72,0,0,0,36.86,31c-.69-4.63.41-8.93,3.45-11.74C46.17,13.82,57,16,64.49,24.13s8.82,19.08,3,24.49c-3,2.81-7.42,3.56-12,2.5a8.75,8.75,0,0,0-7.83,2.17h0a7.84,7.84,0,0,0-.44,11.08l28.6,31a4,4,0,0,0,5.65.22l31-28.6a7.83,7.83,0,0,0,.44-11.07Z" fill="#ffa44a"/>
  <path d="M715,223.42a8.7,8.7,0,0,0-2.94-7.57c-3.56-3-5.58-7-5.14-11.11.84-7.93,10.43-13.42,21.41-12.25S747.55,201,746.71,209c-.44,4.12-3.24,7.57-7.36,9.78a8.68,8.68,0,0,0-4.45,6.79v0a7.8,7.8,0,0,0,6.94,8.58l42,4.45a4,4,0,0,0,4.4-3.56l4.45-42a7.8,7.8,0,0,1,8.58-6.94h0a8.56,8.56,0,0,1,6.71,4.44c2.2,4.22,5.68,7.18,9.86,7.62,7.94.84,15.31-7.34,16.47-18.32s-4.33-20.55-12.26-21.39c-4-.43-7.94,1.36-10.94,4.82a8.91,8.91,0,0,1-7.7,2.94h0a7.79,7.79,0,0,1-6.93-8.58l4.44-42a4,4,0,0,0-3.55-4.4l-42-4.45a7.81,7.81,0,0,0-8.58,6.94v0a8.75,8.75,0,0,0,2.93,7.58c3.57,3,5.58,7,5.15,11.1-.84,7.93-10.43,13.42-21.41,12.25s-19.21-8.53-18.37-16.47c.44-4.11,3.23-7.56,7.36-9.77a8.72,8.72,0,0,0,4.45-6.79v0a7.82,7.82,0,0,0-6.94-8.58l-42-4.44a4,4,0,0,0-4.4,3.55l-4.45,42a7.79,7.79,0,0,1-8.58,6.93h0a8.69,8.69,0,0,1-6.79-4.46c-2.21-4.12-5.66-6.92-9.78-7.35-7.93-.84-15.31,7.38-16.47,18.36s4.32,20.57,12.25,21.41c4.12.44,8.08-1.57,11.11-5.14a8.69,8.69,0,0,1,7.57-2.93h0a7.8,7.8,0,0,1,6.94,8.58l-4.45,42a4,4,0,0,0,3.56,4.4l42,4.45a7.8,7.8,0,0,0,8.58-6.94Z" fill="#ffa44a"/>
  <path d="M676.73,79.63A8.67,8.67,0,0,0,684.41,77c3.16-3.44,7.2-5.3,11.3-4.7,7.89,1.16,13,11,11.4,21.88s-9.3,18.86-17.19,17.7c-4.1-.6-7.43-3.53-9.48-7.74a8.73,8.73,0,0,0-6.61-4.72h0A7.81,7.81,0,0,0,665,106l-6.1,41.75a4,4,0,0,0,3.38,4.54L704,158.41a7.79,7.79,0,0,1,6.59,8.84h0a8.53,8.53,0,0,1-4.7,6.53c-4.3,2-7.4,5.4-8,9.56-1.15,7.89,6.73,15.58,17.66,17.18s20.7-3.51,21.86-11.4c.59-4-1-8-4.39-11.13a8.93,8.93,0,0,1-2.63-7.81v0a7.79,7.79,0,0,1,8.85-6.59l41.75,6.1a4,4,0,0,0,4.54-3.38l6.11-41.75a7.8,7.8,0,0,0-6.59-8.85h0a8.7,8.7,0,0,0-7.68,2.63c-3.17,3.45-7.2,5.3-11.3,4.71-7.89-1.16-13-11-11.4-21.88s9.29-18.86,17.19-17.7c4.09.6,7.43,3.53,9.47,7.73a8.71,8.71,0,0,0,6.61,4.72h0a7.81,7.81,0,0,0,8.85-6.59l6.1-41.76A4,4,0,0,0,799.48,43L757.73,36.9a7.78,7.78,0,0,1-6.59-8.84v0a8.72,8.72,0,0,1,4.72-6.61c4.21-2,7.14-5.38,7.74-9.48C764.75,4,756.83-3.65,745.9-5.25S725.17-1.75,724,6.15c-.6,4.09,1.25,8.13,4.7,11.29a8.7,8.7,0,0,1,2.63,7.69v0a7.8,7.8,0,0,1-8.85,6.59l-41.76-6.1A4,4,0,0,0,676.21,29L670.1,70.78a7.8,7.8,0,0,0,6.59,8.85Z" fill="#f26941"/>
  <path d="M434.33-55.08a8.75,8.75,0,0,0,6.55-4.81c2-4.24,5.28-7.21,9.37-7.87,7.88-1.26,15.68,6.56,17.42,17.47s-3.22,20.77-11.1,22c-4.09.65-8.15-1.15-11.36-4.55a8.73,8.73,0,0,0-7.72-2.53h0A7.81,7.81,0,0,0,431-26.39l6.67,41.66a4,4,0,0,0,4.58,3.32l41.67-6.67a7.81,7.81,0,0,1,8.94,6.47h0A8.56,8.56,0,0,1,490.32,26c-3.5,3.23-5.45,7.36-4.79,11.51,1.26,7.88,11.09,12.86,22,11.11S526.23,39.11,525,31.23c-.65-4-3.39-7.31-7.52-9.3a9,9,0,0,1-4.85-6.67v0a7.8,7.8,0,0,1,6.46-8.94L560.73-.38A4,4,0,0,0,564.05-5l-6.67-41.67a7.8,7.8,0,0,0-8.93-6.47h0a8.67,8.67,0,0,0-6.54,4.81c-2,4.23-5.29,7.21-9.38,7.86-7.87,1.27-15.67-6.55-17.42-17.46s3.22-20.77,11.1-22c4.09-.66,8.15,1.14,11.36,4.54a8.71,8.71,0,0,0,7.72,2.53h0a7.79,7.79,0,0,0,6.47-8.93l-6.67-41.67a4,4,0,0,0-4.58-3.32l-41.67,6.67a7.79,7.79,0,0,1-8.93-6.47v0a8.71,8.71,0,0,1,2.53-7.72c3.4-3.21,5.2-7.27,4.54-11.36-1.26-7.88-11.12-12.85-22-11.1s-18.72,9.55-17.46,17.42c.65,4.09,3.63,7.39,7.86,9.38a8.67,8.67,0,0,1,4.81,6.54v0a7.8,7.8,0,0,1-6.47,8.93L422-107.8a4,4,0,0,0-3.32,4.58l6.67,41.67a7.8,7.8,0,0,0,8.94,6.47Z" fill="#f26941"/>
  <path d="M65.08,141.93c-.92-4-4.1-7.14-8.46-8.85a8.66,8.66,0,0,1-5.22-6.22v0a7.81,7.81,0,0,1,5.88-9.34l41.15-9.34a4,4,0,0,0,3-4.79L92.09,62.21a7.81,7.81,0,0,0-9.34-5.88h0a8.68,8.68,0,0,0-6.22,5.22c-1.71,4.35-4.81,7.54-8.85,8.45-7.78,1.77-16.06-5.53-18.51-16.3S51,32.78,58.79,31c4-.92,8.21.61,11.63,3.8a8.68,8.68,0,0,0,7.87,2h0a7.81,7.81,0,0,0,5.88-9.34L74.85-13.66a4,4,0,0,0-4.78-3L28.92-7.33a7.79,7.79,0,0,1-9.34-5.87v0a9,9,0,0,1,2-8c3.07-3.39,4.46-7.46,3.56-11.43-1.77-7.78-12-12.09-22.75-9.64S-15.68-31.58-13.91-23.8c.93,4.1,4.36,7.19,8.81,8.89A8.5,8.5,0,0,1,.07-8.81v0A7.8,7.8,0,0,1-5.8.56L-46.95,9.91a4,4,0,0,0-3,4.79l9.35,41.15a7.79,7.79,0,0,1-5.88,9.33h0a8.73,8.73,0,0,1-7.87-2C-57.82,60-62,58.45-66,59.36c-7.78,1.77-12.1,11.94-9.65,22.71s10.74,18.07,18.51,16.3c4-.92,7.14-4.1,8.85-8.45a8.72,8.72,0,0,1,6.22-5.23h0a7.81,7.81,0,0,1,9.34,5.88l9.35,41.15a4,4,0,0,0,4.78,3l41.15-9.35a7.81,7.81,0,0,1,9.34,5.88v0a8.71,8.71,0,0,1-2,7.87c-3.18,3.42-4.72,7.59-3.8,11.63,1.77,7.78,11.93,12.1,22.7,9.65S66.84,149.71,65.08,141.93Z" fill="#f26941"/>
  <path d="M744.51,470.52c-3.76-1.74-8.16-1.12-12.17,1.28a8.74,8.74,0,0,1-8.12.33l0,0a7.8,7.8,0,0,1-3.78-10.36l17.78-38.27a4,4,0,0,0-1.94-5.31L698,400.38a7.8,7.8,0,0,0-10.36,3.79l0,0a8.74,8.74,0,0,0,.33,8.12c2.4,4,3,8.41,1.27,12.16-3.36,7.24-14.2,9.33-24.22,4.67s-15.41-14.29-12.05-21.52c1.75-3.76,5.51-6.12,10.12-6.87a8.74,8.74,0,0,0,6.42-5v0a7.8,7.8,0,0,0-3.78-10.36l-38.27-17.79a4,4,0,0,0-5.32,1.94L604.33,407.8A7.81,7.81,0,0,1,594,411.59l0,0a8.93,8.93,0,0,1-5.1-6.5c-.8-4.5-3.18-8.09-6.86-9.81-7.24-3.36-16.89,2.07-21.55,12.09s-2.57,20.88,4.66,24.24c3.81,1.78,8.36,1,12.42-1.53a8.52,8.52,0,0,1,8-.35l0,0a7.79,7.79,0,0,1,3.78,10.36l-17.78,38.27a4,4,0,0,0,1.94,5.31l38.27,17.78a7.81,7.81,0,0,1,3.79,10.37l0,0a8.69,8.69,0,0,1-6.41,5c-4.62.76-8.38,3.12-10.13,6.87-3.36,7.24,2,16.87,12,21.53s20.87,2.56,24.23-4.67c1.74-3.75,1.12-8.15-1.28-12.17a8.69,8.69,0,0,1-.32-8.11v0A7.8,7.8,0,0,1,644,516.46l38.27,17.78a4,4,0,0,0,5.32-1.94L705.4,494a7.8,7.8,0,0,1,10.36-3.78h0a8.72,8.72,0,0,1,5,6.41c.75,4.62,3.11,8.38,6.87,10.13,7.23,3.36,16.87-2,21.53-12.05S751.74,473.89,744.51,470.52Z" fill="#f26941"/>
  <path d="M367.57,195.43a9,9,0,0,0,.9,8.21c2.58,3.78,3.39,8,1.95,11.82-2.82,7.46-13.52,10.32-23.86,6.42S330.12,208.75,333,201.29c1.48-3.94,5.31-6.53,9.95-7.59a8.53,8.53,0,0,0,6-5.34v0a7.81,7.81,0,0,0-4.54-10.06l-39.47-14.92a4,4,0,0,0-5.15,2.32l-14.93,39.47a7.79,7.79,0,0,1-10,4.54h0a8.69,8.69,0,0,1-5.44-6c-1.09-4.55-3.72-8.13-7.6-9.59-7.46-2.82-16.67,3.27-20.58,13.6s-1,21,6.44,23.81c3.87,1.47,8.21.52,12-2.16a8.68,8.68,0,0,1,8.07-.92h0a7.8,7.8,0,0,1,4.54,10.05l-14.93,39.48a4,4,0,0,0,2.33,5.15L299.06,298a7.81,7.81,0,0,0,10.06-4.54h0a8.57,8.57,0,0,0-.94-8c-2.78-3.87-3.86-8.31-2.37-12.24,2.82-7.46,13.45-10.36,23.78-6.45s16.4,13.11,13.58,20.57c-1.45,3.82-4.79,6.48-9.24,7.6a8.89,8.89,0,0,0-6.09,5.55v0a7.8,7.8,0,0,0,4.53,10.06l39.47,14.92a4,4,0,0,0,5.16-2.32l14.93-39.47A7.79,7.79,0,0,1,402,279.18h0a8.71,8.71,0,0,1,5.45,6c1.09,4.55,3.72,8.13,7.59,9.59,7.46,2.82,16.68-3.27,20.59-13.6s1-21-6.44-23.81c-3.87-1.47-8.21-.52-12,2.16a8.68,8.68,0,0,1-8.07.92h0a7.78,7.78,0,0,1-4.53-10.05l14.92-39.48a4,4,0,0,0-2.32-5.15l-39.48-14.93a7.8,7.8,0,0,0-10.05,4.54Z" fill="#f26941"/>
  <path d="M142.53,308.2a8.72,8.72,0,0,0-8,1.29c-3.7,2.86-8,4-11.93,2.72-7.58-2.48-11-13-7.52-23.5s12.36-17,19.94-14.53c3.94,1.29,6.73,4.75,8,9.24a8.72,8.72,0,0,0,5.71,5.77h0a7.82,7.82,0,0,0,9.88-5l13.09-40.09a4,4,0,0,0-2.56-5L129.07,226a7.84,7.84,0,0,1-5-9.88h0a8.69,8.69,0,0,1,5.78-5.71c4.49-1.3,7.94-4.09,9.23-8,2.48-7.58-4-16.51-14.53-19.94s-21-.06-23.49,7.52c-1.29,3.94-.15,8.23,2.71,11.93a8.72,8.72,0,0,1,1.29,8h0a7.83,7.83,0,0,1-9.88,5L55.08,201.8a4,4,0,0,0-5,2.56L37,244.44a7.83,7.83,0,0,0,5,9.88h0A8.71,8.71,0,0,0,50,253c3.7-2.86,8-4,11.93-2.71,7.58,2.47,11,13,7.52,23.49s-12.35,17-19.94,14.53c-3.93-1.28-6.72-4.74-8-9.23a8.71,8.71,0,0,0-5.72-5.78h0a7.85,7.85,0,0,0-9.88,5L12.78,318.43a4,4,0,0,0,2.56,5.05l40.09,13.08a7.83,7.83,0,0,0,9.88-5h0a8.71,8.71,0,0,0-1.29-8c-2.86-3.7-4-8-2.72-11.93,2.48-7.58,13-11,23.5-7.52s17,12.35,14.53,19.94c-1.29,3.93-4.75,6.72-9.24,8a8.71,8.71,0,0,0-5.77,5.72h0a7.84,7.84,0,0,0,5,9.88l40.09,13.09a4,4,0,0,0,5-2.56l13.09-40.09a7.84,7.84,0,0,0-5-9.88Z" fill="#f26941"/>
  <path d="M204.84,173.88a8.7,8.7,0,0,0-4.31-6.89c-4.08-2.29-6.8-5.8-7.15-9.92-.68-7.95,7.7-15.15,18.71-16.09s20.47,4.76,21.14,12.7c.35,4.13-1.74,8-5.37,11a8.68,8.68,0,0,0-3.09,7.51h0a7.83,7.83,0,0,0,8.47,7.14l42-3.56a4,4,0,0,0,3.65-4.33l-3.57-42a7.85,7.85,0,0,1,7.15-8.47h0a8.72,8.72,0,0,1,7.51,3.09c2.95,3.63,6.87,5.73,11,5.38,7.95-.68,13.64-10.15,12.7-21.15s-8.13-19.39-16.08-18.71c-4.13.35-7.63,3.07-9.93,7.15a8.69,8.69,0,0,1-6.88,4.31h0a7.83,7.83,0,0,1-8.47-7.14l-3.57-42a4,4,0,0,0-4.32-3.65l-42,3.57A7.82,7.82,0,0,1,214,44.64h0A8.68,8.68,0,0,1,217,37.13c3.63-2.94,5.72-6.86,5.37-11-.67-7.95-10.14-13.63-21.15-12.7s-19.38,8.14-18.7,16.08c.35,4.13,3.07,7.64,7.15,9.93A8.73,8.73,0,0,1,194,46.34h0a7.84,7.84,0,0,1-7.15,8.47l-42,3.56a4,4,0,0,0-3.65,4.32l3.57,42a7.85,7.85,0,0,1-7.15,8.47h0a8.73,8.73,0,0,1-7.51-3.09c-3-3.63-6.86-5.73-11-5.38-7.95.68-13.64,10.14-12.7,21.15s8.13,19.38,16.08,18.71c4.13-.35,7.64-3.08,9.93-7.15a8.7,8.7,0,0,1,6.88-4.31h0a7.82,7.82,0,0,1,8.47,7.14l3.57,42a4,4,0,0,0,4.32,3.65l42-3.56a7.83,7.83,0,0,0,7.14-8.47Z" fill="#f26941"/>
  <path d="M249.51,422.29a8.7,8.7,0,0,0-6.44-5c-4.62-.73-8.39-3.07-10.15-6.82-3.4-7.22,2-16.88,12-21.58s20.85-2.66,24.24,4.55c1.76,3.75,1.16,8.15-1.22,12.18a8.7,8.7,0,0,0-.28,8.12h0A7.83,7.83,0,0,0,278,417.53l38.16-17.94a4,4,0,0,0,1.91-5.33l-17.94-38.15a7.84,7.84,0,0,0-10.43-3.76h0a8.71,8.71,0,0,0-5,6.44c-.74,4.62-3.08,8.39-6.83,10.15-7.22,3.4-16.88-1.95-21.58-11.95s-2.66-20.85,4.56-24.24c3.75-1.76,8.15-1.16,12.17,1.22a8.71,8.71,0,0,0,8.12.29h0A7.84,7.84,0,0,0,285,323.83l-18-38.15a4,4,0,0,0-5.32-1.92L223.55,301.7A7.83,7.83,0,0,1,213.13,298h0a8.71,8.71,0,0,1,.29-8.12c2.37-4,3-8.43,1.22-12.17-3.4-7.22-14.26-9.26-24.25-4.56S175,287.46,178.44,294.68c1.76,3.75,5.53,6.09,10.15,6.82a8.73,8.73,0,0,1,6.44,5h0a7.83,7.83,0,0,1-3.76,10.42l-38.15,17.95a4,4,0,0,0-1.92,5.32l18,38.16a7.84,7.84,0,0,0,10.42,3.75h0a8.69,8.69,0,0,0,5-6.43c.73-4.62,3.07-8.4,6.82-10.16,7.22-3.39,16.88,2,21.58,11.95s2.66,20.85-4.55,24.25c-3.75,1.76-8.15,1.16-12.18-1.22a8.71,8.71,0,0,0-8.12-.29h0a7.84,7.84,0,0,0-3.75,10.43l17.94,38.15a4,4,0,0,0,5.33,1.92l38.15-18a7.83,7.83,0,0,0,3.76-10.42Z" fill="#f26941"/>
  <path d="M344,75.07a8.69,8.69,0,0,0,5.43-6c1.08-4.55,3.71-8.14,7.58-9.61,7.45-2.84,16.68,3.23,20.61,13.55s1.07,21-6.38,23.83c-3.87,1.48-8.21.54-12.05-2.14a8.7,8.7,0,0,0-8.07-.9l0,0a7.8,7.8,0,0,0-4.52,10.06l15,39.44a4,4,0,0,0,5.16,2.31l39.44-15a7.79,7.79,0,0,1,10.06,4.51h0a8.54,8.54,0,0,1-.92,8c-2.77,3.88-3.83,8.33-2.34,12.25,2.84,7.46,13.47,10.33,23.79,6.4s16.37-13.15,13.54-20.61c-1.45-3.81-4.81-6.47-9.26-7.58a8.9,8.9,0,0,1-6.1-5.53l0,0a7.8,7.8,0,0,1,4.52-10.07l39.44-15a4,4,0,0,0,2.31-5.16l-15-39.44a7.81,7.81,0,0,0-10.07-4.51h0a8.71,8.71,0,0,0-5.43,6c-1.08,4.55-3.71,8.14-7.58,9.61-7.45,2.84-16.68-3.22-20.61-13.55s-1.07-21,6.38-23.83c3.87-1.47,8.21-.54,12.05,2.14a8.7,8.7,0,0,0,8.07.9h0A7.8,7.8,0,0,0,453.48,25l-15-39.43a4,4,0,0,0-5.16-2.32l-39.44,15A7.8,7.8,0,0,1,383.8-6.23l0,0a8.68,8.68,0,0,1,.91-8.07c2.67-3.84,3.61-8.18,2.13-12C384-33.83,373.32-36.69,363-32.76S346.6-19.6,349.44-12.14c1.48,3.86,5.06,6.49,9.61,7.57a8.69,8.69,0,0,1,6,5.43l0,0A7.81,7.81,0,0,1,360.59,11L321.15,26a4,4,0,0,0-2.31,5.16l15,39.44a7.8,7.8,0,0,0,10.07,4.51Z" fill="#f26941"/>
  <path d="M464.4,482.57c1.17-4-.09-8.23-3-11.85a8.67,8.67,0,0,1-1.51-8v0a7.8,7.8,0,0,1,9.69-5.26l40.46,12a4,4,0,0,0,5-2.69l12-40.46a7.8,7.8,0,0,0-5.26-9.7h0a8.73,8.73,0,0,0-8,1.51c-3.62,3-7.88,4.22-11.85,3-7.65-2.27-11.3-12.69-8.16-23.28s11.89-17.34,19.53-15.07c4,1.18,6.86,4.56,8.28,9a8.72,8.72,0,0,0,5.87,5.62h0a7.81,7.81,0,0,0,9.7-5.26l12-40.46a4,4,0,0,0-2.7-5l-40.46-12a7.81,7.81,0,0,1-5.26-9.7v0a9,9,0,0,1,5.69-6c4.34-1.45,7.54-4.33,8.7-8.23,2.27-7.65-4.52-16.4-15.11-19.54s-21,.5-23.3,8.15c-1.19,4,.28,8.41,3.33,12.06a8.52,8.52,0,0,1,1.52,7.86v0a7.81,7.81,0,0,1-9.7,5.27l-40.45-12a4,4,0,0,0-5,2.7l-12,40.46A7.8,7.8,0,0,1,404.7,361h0a8.74,8.74,0,0,1-5.87-5.62c-1.42-4.45-4.3-7.83-8.27-9-7.65-2.26-16.4,4.48-19.54,15.07s.51,21,8.16,23.28c4,1.18,8.23-.08,11.85-3a8.75,8.75,0,0,1,8-1.51h0a7.81,7.81,0,0,1,5.26,9.7l-12,40.46a4,4,0,0,0,2.7,5l40.45,12a7.8,7.8,0,0,1,5.26,9.7v0a8.68,8.68,0,0,1-5.61,5.87c-4.46,1.42-7.84,4.31-9,8.28-2.27,7.64,4.47,16.39,15.06,19.53S462.13,490.22,464.4,482.57Z" fill="#f26941"/>
  <path d="M746.15,238.31a9,9,0,0,0,4,7.23c3.84,2.49,6.21,6.08,6.35,10.14.28,8-8.49,14.75-19.53,15.13s-20.23-5.78-20.51-13.75c-.14-4.2,2.39-8.07,6.26-10.84a8.49,8.49,0,0,0,3.44-7.23v0a7.8,7.8,0,0,0-8.06-7.53l-42.18,1.45a4,4,0,0,0-3.86,4.13l1.45,42.18a7.8,7.8,0,0,1-7.53,8.06h0a8.7,8.7,0,0,1-7.35-3.46c-2.76-3.78-6.57-6.07-10.71-5.93-8,.28-14.13,9.45-13.75,20.49s7.15,19.76,15.12,19.49c4.14-.14,7.78-2.69,10.28-6.64a8.72,8.72,0,0,1,7.09-4h0a7.8,7.8,0,0,1,8.06,7.53l1.45,42.17a4,4,0,0,0,4.13,3.86l42.18-1.44a7.8,7.8,0,0,0,7.52-8.07h0a8.53,8.53,0,0,0-4-7c-4-2.5-6.75-6.18-6.9-10.38-.27-8,8.41-14.74,19.45-15.12s20.19,5.78,20.47,13.75c.14,4.07-1.92,7.82-5.6,10.57a8.94,8.94,0,0,0-3.48,7.47v0a7.82,7.82,0,0,0,8.07,7.53l42.17-1.45a4,4,0,0,0,3.86-4.14l-1.45-42.17a7.8,7.8,0,0,1,7.53-8.06h0a8.7,8.7,0,0,1,7.34,3.46c2.77,3.78,6.57,6.06,10.71,5.92,8-.27,14.13-9.44,13.75-20.48s-7.15-19.77-15.12-19.49c-4.14.14-7.78,2.68-10.28,6.64a8.71,8.71,0,0,1-7.09,4h0a7.8,7.8,0,0,1-8.07-7.53L800,232.63a4,4,0,0,0-4.14-3.87l-42.17,1.45a7.8,7.8,0,0,0-7.53,8.06Z" fill="#f26941"/>
  <path d="M92.66,489.12a8.72,8.72,0,0,0-8.08.89c-3.83,2.68-8.18,3.6-12,2.12-7.46-2.85-10.3-13.52-6.35-23.84s13.18-16.37,20.63-13.52c3.87,1.48,6.49,5.07,7.56,9.62a8.69,8.69,0,0,0,5.42,6.05h0a7.84,7.84,0,0,0,10.12-4.52L125,426.54a4,4,0,0,0-2.31-5.17L83.29,406.31a7.82,7.82,0,0,1-4.52-10.11h0a8.69,8.69,0,0,1,6-5.42c4.55-1.08,8.14-3.7,9.62-7.56,2.85-7.45-3.21-16.69-13.52-20.64s-21-1.1-23.84,6.35c-1.48,3.87-.55,8.21,2.12,12.05a8.7,8.7,0,0,1,.89,8.07h0A7.83,7.83,0,0,1,50,393.57L10.59,378.51a4,4,0,0,0-5.17,2.31L-9.64,420.2a7.84,7.84,0,0,0,4.52,10.12h0A8.72,8.72,0,0,0,3,429.43c3.83-2.67,8.18-3.6,12.05-2.12,7.45,2.85,10.29,13.52,6.34,23.84S8.17,467.52.72,464.67c-3.87-1.48-6.49-5.07-7.56-9.62A8.71,8.71,0,0,0-12.26,449h0a7.85,7.85,0,0,0-10.12,4.52L-37.44,492.9a4,4,0,0,0,2.31,5.17L4.25,513.13a7.84,7.84,0,0,0,10.12-4.52h0a8.7,8.7,0,0,0-.89-8.07c-2.67-3.84-3.6-8.19-2.12-12.05,2.85-7.45,13.52-10.3,23.84-6.35s16.37,13.18,13.52,20.63c-1.48,3.87-5.07,6.49-9.62,7.56a8.71,8.71,0,0,0-6.05,5.42h0a7.84,7.84,0,0,0,4.52,10.12L77,540.93a4,4,0,0,0,5.17-2.31l15.06-39.38a7.85,7.85,0,0,0-4.52-10.12Z" fill="#f26941"/>
  <path d="M558.78,183.72a8.72,8.72,0,0,0-3-7.54c-3.6-3-5.65-6.93-5.26-11.05.76-7.94,10.29-13.52,21.29-12.47S591.09,161,590.33,169c-.39,4.12-3.16,7.6-7.26,9.85a8.68,8.68,0,0,0-4.38,6.83h0a7.83,7.83,0,0,0,7,8.55l42,4a4,4,0,0,0,4.36-3.6l4-42a7.82,7.82,0,0,1,8.54-7h0a8.69,8.69,0,0,1,6.84,4.38c2.25,4.1,5.73,6.87,9.85,7.26,7.94.76,15.23-7.54,16.28-18.53s-4.53-20.53-12.47-21.29c-4.12-.39-8.06,1.66-11,5.26a8.72,8.72,0,0,1-7.54,3h0a7.84,7.84,0,0,1-7-8.55l4-42a4,4,0,0,0-3.6-4.37l-42-4a7.83,7.83,0,0,1-7.05-8.55h0a8.69,8.69,0,0,1,4.38-6.83c4.1-2.25,6.87-5.73,7.26-9.85C603.3,33.59,595,26.3,584,25.24s-20.53,4.53-21.29,12.47c-.39,4.12,1.66,8.06,5.26,11a8.73,8.73,0,0,1,3,7.55h0a7.85,7.85,0,0,1-8.55,7l-42-4a4,4,0,0,0-4.37,3.6l-4,42a7.83,7.83,0,0,1-8.54,7h0a8.68,8.68,0,0,1-6.84-4.39c-2.25-4.1-5.73-6.86-9.85-7.25-7.94-.76-15.23,7.53-16.29,18.53s4.53,20.52,12.47,21.28c4.13.4,8.07-1.65,11.05-5.25a8.7,8.7,0,0,1,7.55-3h0a7.84,7.84,0,0,1,7.05,8.55l-4,42a4,4,0,0,0,3.6,4.36l42,4a7.85,7.85,0,0,0,8.55-7.06Z" fill="#f26941"/>
  <path d="M530.78,284.66a8.73,8.73,0,0,0,0-8.12c-2.27-4.09-2.74-8.51-.87-12.2,3.6-7.12,14.51-8.85,24.37-3.86s14.92,14.8,11.32,21.92c-1.87,3.69-5.71,5.93-10.35,6.53a8.7,8.7,0,0,0-6.57,4.76h0a7.83,7.83,0,0,0,3.45,10.53l37.62,19a4,4,0,0,0,5.37-1.76l19-37.62a7.83,7.83,0,0,0-3.45-10.53h0a8.73,8.73,0,0,0-8.12,0c-4.09,2.27-8.51,2.74-12.21.87-7.11-3.6-8.84-14.51-3.85-24.37s14.8-14.92,21.92-11.32c3.69,1.87,5.92,5.71,6.52,10.35a8.72,8.72,0,0,0,4.77,6.57h0a7.83,7.83,0,0,0,10.53-3.45l19-37.62a4,4,0,0,0-1.76-5.37l-37.62-19a7.85,7.85,0,0,1-3.46-10.53h0a8.73,8.73,0,0,1,6.58-4.77c4.64-.6,8.48-2.83,10.35-6.53,3.6-7.12-1.47-16.93-11.32-21.92s-20.77-3.26-24.37,3.86c-1.87,3.69-1.4,8.11.87,12.2a8.75,8.75,0,0,1,.05,8.13h0a7.84,7.84,0,0,1-10.53,3.45l-37.62-19a4,4,0,0,0-5.38,1.76l-19,37.62a7.84,7.84,0,0,0,3.46,10.53h0a8.67,8.67,0,0,0,8.12-.05c4.09-2.26,8.51-2.74,12.2-.87,7.12,3.6,8.85,14.51,3.86,24.37s-14.8,14.92-21.92,11.32c-3.69-1.87-5.93-5.71-6.53-10.35a8.7,8.7,0,0,0-4.76-6.57h0a7.83,7.83,0,0,0-10.53,3.45l-19,37.62a4,4,0,0,0,1.76,5.38l37.62,19a7.84,7.84,0,0,0,10.53-3.46Z" fill="#f26941"/>
  <path d="M771.44,512.55a8.7,8.7,0,0,0,4.22-6.93c.23-4.67,2.15-8.68,5.68-10.84,6.81-4.16,17,.1,22.76,9.53s4.91,20.43-1.89,24.59c-3.54,2.16-8,2.05-12.24.12a8.69,8.69,0,0,0-8.1.6l0,0a7.79,7.79,0,0,0-2.58,10.72l22,36a4,4,0,0,0,5.5,1.33l36-22a7.81,7.81,0,0,1,10.73,2.59h0a8.53,8.53,0,0,1,.56,8c-2,4.32-2.24,8.89,0,12.47,4.16,6.81,15.13,7.68,24.56,1.91s13.67-15.94,9.51-22.74c-2.13-3.48-5.91-5.47-10.49-5.75a8.91,8.91,0,0,1-7-4.32l0,0a7.8,7.8,0,0,1,2.59-10.73l36-22a4,4,0,0,0,1.32-5.5l-22-36A7.8,7.8,0,0,0,877.74,471l0,0a8.69,8.69,0,0,0-4.23,6.93c-.23,4.68-2.14,8.68-5.68,10.84-6.8,4.16-17-.1-22.75-9.52s-4.92-20.44,1.89-24.6c3.53-2.16,8-2,12.23-.12a8.69,8.69,0,0,0,8.1-.6h0a7.81,7.81,0,0,0,2.59-10.73l-22-36a4,4,0,0,0-5.5-1.33l-36,22a7.79,7.79,0,0,1-10.72-2.59l0,0a8.69,8.69,0,0,1-.6-8.1c1.93-4.26,2.05-8.7-.11-12.23-4.17-6.81-15.18-7.65-24.6-1.89s-13.69,15.95-9.53,22.76c2.16,3.53,6.17,5.45,10.84,5.67a8.72,8.72,0,0,1,6.94,4.23v0A7.8,7.8,0,0,1,776,446.47l-36,22a4,4,0,0,0-1.33,5.49l22,36a7.81,7.81,0,0,0,10.73,2.58Z" fill="#f26941"/>
  <path d="M210.72-79a8.71,8.71,0,0,0,7.37-3.41c2.79-3.76,6.62-6,10.75-5.84,8,.33,14.06,9.55,13.6,20.59S235.14-48,227.17-48.34c-4.14-.17-7.76-2.74-10.23-6.72a8.72,8.72,0,0,0-7.06-4h0a7.81,7.81,0,0,0-8.13,7.46L200-9.44a4,4,0,0,0,3.83,4.16L246-3.51a7.8,7.8,0,0,1,7.46,8.12h0a8.53,8.53,0,0,1-4,7c-4.07,2.47-6.8,6.13-7,10.33-.33,8,8.3,14.8,19.33,15.27s20.24-5.63,20.57-13.6c.17-4.07-1.86-7.83-5.51-10.61a8.91,8.91,0,0,1-3.42-7.5v0A7.8,7.8,0,0,1,281.52-2L323.68-.25a4,4,0,0,0,4.16-3.83l1.77-42.16a7.79,7.79,0,0,0-7.46-8.12h0a8.7,8.7,0,0,0-7.37,3.4c-2.79,3.76-6.62,6-10.75,5.84-8-.33-14.06-9.55-13.6-20.58s7.3-19.71,15.27-19.38c4.14.17,7.76,2.75,10.23,6.72a8.72,8.72,0,0,0,7.06,4h0a7.8,7.8,0,0,0,8.12-7.47L332.87-124a4,4,0,0,0-3.83-4.17l-42.16-1.77a7.8,7.8,0,0,1-7.47-8.12v0a8.7,8.7,0,0,1,4-7.06c4-2.47,6.55-6.09,6.72-10.23.33-8-8.34-14.8-19.38-15.27S250.52-165,250.19-157c-.18,4.13,2.08,8,5.83,10.75a8.71,8.71,0,0,1,3.41,7.37v0a7.8,7.8,0,0,1-8.12,7.47l-42.16-1.77a4,4,0,0,0-4.16,3.83l-1.77,42.16a7.79,7.79,0,0,0,7.46,8.12Z" fill="#f26941"/>
  <path d="M257.2,460.84a8.68,8.68,0,0,0,8.1-.61c3.93-2.54,8.31-3.31,12.12-1.7,7.35,3.1,9.82,13.87,5.52,24s-13.74,15.91-21.09,12.8c-3.81-1.61-6.31-5.28-7.22-9.87a8.71,8.71,0,0,0-5.21-6.23l0,0a7.8,7.8,0,0,0-10.22,4.15l-16.43,38.87a4,4,0,0,0,2.13,5.25l38.87,16.42a7.8,7.8,0,0,1,4.15,10.22h0a8.55,8.55,0,0,1-6.19,5.14c-4.68.88-8.53,3.36-10.16,7.23-3.11,7.35,2.59,16.77,12.76,21.07s20.92,1.82,24-5.53c1.58-3.75,1-8-1.45-11.87a8.92,8.92,0,0,1-.58-8.22v0a7.8,7.8,0,0,1,10.22-4.15l38.88,16.42a4,4,0,0,0,5.24-2.13l16.42-38.87A7.8,7.8,0,0,0,352.92,523h0a8.68,8.68,0,0,0-8.1.61c-3.93,2.54-8.3,3.31-12.11,1.7-7.35-3.1-9.82-13.87-5.52-24s13.74-15.91,21.08-12.8c3.82,1.61,6.31,5.28,7.23,9.87a8.69,8.69,0,0,0,5.21,6.23l0,0a7.8,7.8,0,0,0,10.22-4.15l16.42-38.87a4,4,0,0,0-2.12-5.25l-38.88-16.42a7.81,7.81,0,0,1-4.15-10.22l0,0a8.69,8.69,0,0,1,6.23-5.21c4.59-.92,8.27-3.41,9.88-7.22,3.1-7.35-2.63-16.79-12.8-21.09s-20.94-1.83-24,5.52c-1.61,3.81-.83,8.18,1.7,12.11a8.71,8.71,0,0,1,.62,8.1l0,0A7.79,7.79,0,0,1,313.56,426l-38.87-16.42a4,4,0,0,0-5.24,2.13L253,450.61a7.8,7.8,0,0,0,4.15,10.22Z" fill="#f26941"/>
  <path d="M676.73,78.63A8.67,8.67,0,0,0,684.41,76c3.16-3.44,7.2-5.3,11.3-4.7,7.89,1.16,13,11,11.4,21.88s-9.3,18.86-17.19,17.7c-4.1-.6-7.43-3.53-9.48-7.74a8.73,8.73,0,0,0-6.61-4.72h0A7.81,7.81,0,0,0,665,105l-6.1,41.75a4,4,0,0,0,3.38,4.54L704,157.41a7.79,7.79,0,0,1,6.59,8.84h0a8.53,8.53,0,0,1-4.7,6.53c-4.3,2-7.4,5.4-8,9.56-1.15,7.89,6.73,15.58,17.66,17.18s20.7-3.51,21.86-11.4c.59-4-1-8-4.39-11.13a8.93,8.93,0,0,1-2.63-7.81v0a7.79,7.79,0,0,1,8.85-6.59l41.75,6.1a4,4,0,0,0,4.54-3.38l6.11-41.75a7.8,7.8,0,0,0-6.59-8.85h0a8.7,8.7,0,0,0-7.68,2.63c-3.17,3.45-7.2,5.3-11.3,4.71-7.89-1.16-13-11-11.4-21.88s9.29-18.86,17.19-17.7c4.09.6,7.43,3.53,9.47,7.73a8.71,8.71,0,0,0,6.61,4.72h0a7.81,7.81,0,0,0,8.85-6.59l6.1-41.76A4,4,0,0,0,799.48,42L757.73,35.9a7.78,7.78,0,0,1-6.59-8.84v0a8.72,8.72,0,0,1,4.72-6.61c4.21-2,7.14-5.38,7.74-9.48C764.75,3,756.83-4.65,745.9-6.25S725.17-2.75,724,5.15c-.6,4.09,1.25,8.13,4.7,11.29a8.7,8.7,0,0,1,2.63,7.69v0a7.8,7.8,0,0,1-8.85,6.59l-41.76-6.1A4,4,0,0,0,676.21,28L670.1,69.78a7.8,7.8,0,0,0,6.59,8.85Z" fill="#ffe04a"/>
  <path d="M434.33-56.08a8.75,8.75,0,0,0,6.55-4.81c2-4.24,5.28-7.21,9.37-7.87,7.88-1.26,15.68,6.56,17.42,17.47s-3.22,20.77-11.1,22c-4.09.65-8.15-1.15-11.36-4.55a8.73,8.73,0,0,0-7.72-2.53h0A7.81,7.81,0,0,0,431-27.39l6.67,41.66a4,4,0,0,0,4.58,3.32l41.67-6.67a7.81,7.81,0,0,1,8.94,6.47h0A8.56,8.56,0,0,1,490.32,25c-3.5,3.23-5.45,7.36-4.79,11.51,1.26,7.88,11.09,12.86,22,11.11S526.23,38.11,525,30.23c-.65-4-3.39-7.31-7.52-9.3a9,9,0,0,1-4.85-6.67v0a7.8,7.8,0,0,1,6.46-8.94l41.67-6.67A4,4,0,0,0,564.05-6l-6.67-41.67a7.8,7.8,0,0,0-8.93-6.47h0a8.67,8.67,0,0,0-6.54,4.81c-2,4.23-5.29,7.21-9.38,7.86-7.87,1.27-15.67-6.55-17.42-17.46s3.22-20.77,11.1-22c4.09-.66,8.15,1.14,11.36,4.54a8.71,8.71,0,0,0,7.72,2.53h0a7.79,7.79,0,0,0,6.47-8.93l-6.67-41.67a4,4,0,0,0-4.58-3.32l-41.67,6.67a7.79,7.79,0,0,1-8.93-6.47v0a8.71,8.71,0,0,1,2.53-7.72c3.4-3.21,5.2-7.27,4.54-11.36-1.26-7.88-11.12-12.85-22-11.1s-18.72,9.55-17.46,17.42c.65,4.09,3.63,7.39,7.86,9.38a8.67,8.67,0,0,1,4.81,6.54v0a7.8,7.8,0,0,1-6.47,8.93L422-108.8a4,4,0,0,0-3.32,4.58l6.67,41.67a7.8,7.8,0,0,0,8.94,6.47Z" fill="#ffe04a"/>
  <path d="M65.08,140.93c-.92-4-4.1-7.14-8.46-8.85a8.66,8.66,0,0,1-5.22-6.22v0a7.81,7.81,0,0,1,5.88-9.34l41.15-9.34a4,4,0,0,0,3-4.79L92.09,61.21a7.81,7.81,0,0,0-9.34-5.88h0a8.68,8.68,0,0,0-6.22,5.22c-1.71,4.35-4.81,7.54-8.85,8.45-7.78,1.77-16.06-5.53-18.51-16.3S51,31.78,58.79,30c4-.92,8.21.61,11.63,3.8a8.68,8.68,0,0,0,7.87,2h0a7.81,7.81,0,0,0,5.88-9.34L74.85-14.66a4,4,0,0,0-4.78-3L28.92-8.33a7.79,7.79,0,0,1-9.34-5.87v0a9,9,0,0,1,2-8c3.07-3.39,4.46-7.46,3.56-11.43-1.77-7.78-12-12.09-22.75-9.64S-15.68-32.58-13.91-24.8c.93,4.1,4.36,7.19,8.81,8.89A8.5,8.5,0,0,1,.07-9.81v0A7.8,7.8,0,0,1-5.8-.44L-46.95,8.91a4,4,0,0,0-3,4.79l9.35,41.15a7.79,7.79,0,0,1-5.88,9.33h0a8.73,8.73,0,0,1-7.87-2C-57.82,59-62,57.45-66,58.36c-7.78,1.77-12.1,11.94-9.65,22.71s10.74,18.07,18.51,16.3c4-.92,7.14-4.1,8.85-8.45a8.72,8.72,0,0,1,6.22-5.23h0a7.81,7.81,0,0,1,9.34,5.88l9.35,41.15a4,4,0,0,0,4.78,3l41.15-9.35a7.81,7.81,0,0,1,9.34,5.88v0a8.71,8.71,0,0,1-2,7.87c-3.18,3.42-4.72,7.59-3.8,11.63,1.77,7.78,11.93,12.1,22.7,9.65S66.84,148.71,65.08,140.93Z" fill="#ffe04a"/>
  <path d="M744.51,469.52c-3.76-1.74-8.16-1.12-12.17,1.28a8.74,8.74,0,0,1-8.12.33l0,0a7.8,7.8,0,0,1-3.78-10.36l17.78-38.27a4,4,0,0,0-1.94-5.31L698,399.38a7.8,7.8,0,0,0-10.36,3.79l0,0a8.74,8.74,0,0,0,.33,8.12c2.4,4,3,8.41,1.27,12.16-3.36,7.24-14.2,9.33-24.22,4.67s-15.41-14.29-12.05-21.52c1.75-3.76,5.51-6.12,10.12-6.87a8.74,8.74,0,0,0,6.42-5v0a7.8,7.8,0,0,0-3.78-10.36l-38.27-17.79a4,4,0,0,0-5.32,1.94L604.33,406.8A7.81,7.81,0,0,1,594,410.59l0,0a8.93,8.93,0,0,1-5.1-6.5c-.8-4.5-3.18-8.09-6.86-9.81-7.24-3.36-16.89,2.07-21.55,12.09s-2.57,20.88,4.66,24.24c3.81,1.78,8.36,1,12.42-1.53a8.52,8.52,0,0,1,8-.35l0,0a7.79,7.79,0,0,1,3.78,10.36l-17.78,38.27a4,4,0,0,0,1.94,5.31l38.27,17.78a7.81,7.81,0,0,1,3.79,10.37l0,0a8.69,8.69,0,0,1-6.41,5c-4.62.76-8.38,3.12-10.13,6.87-3.36,7.24,2,16.87,12,21.53s20.87,2.56,24.23-4.67c1.74-3.75,1.12-8.15-1.28-12.17a8.69,8.69,0,0,1-.32-8.11v0A7.8,7.8,0,0,1,644,515.46l38.27,17.78a4,4,0,0,0,5.32-1.94L705.4,493a7.8,7.8,0,0,1,10.36-3.78h0a8.72,8.72,0,0,1,5,6.41c.75,4.62,3.11,8.38,6.87,10.13,7.23,3.36,16.87-2,21.53-12.05S751.74,472.89,744.51,469.52Z" fill="#ffe04a"/>
  <path d="M367.57,194.43a9,9,0,0,0,.9,8.21c2.58,3.78,3.39,8,1.95,11.82-2.82,7.46-13.52,10.32-23.86,6.42S330.12,207.75,333,200.29c1.48-3.94,5.31-6.53,9.95-7.59a8.53,8.53,0,0,0,6-5.34v0a7.81,7.81,0,0,0-4.54-10.06l-39.47-14.92a4,4,0,0,0-5.15,2.32l-14.93,39.47a7.79,7.79,0,0,1-10,4.54h0a8.69,8.69,0,0,1-5.44-6c-1.09-4.55-3.72-8.13-7.6-9.59-7.46-2.82-16.67,3.27-20.58,13.6s-1,21,6.44,23.81c3.87,1.47,8.21.52,12-2.16a8.68,8.68,0,0,1,8.07-.92h0a7.8,7.8,0,0,1,4.54,10.05l-14.93,39.48a4,4,0,0,0,2.33,5.15L299.06,297a7.81,7.81,0,0,0,10.06-4.54h0a8.57,8.57,0,0,0-.94-8c-2.78-3.87-3.86-8.31-2.37-12.24,2.82-7.46,13.45-10.36,23.78-6.45s16.4,13.11,13.58,20.57c-1.45,3.82-4.79,6.48-9.24,7.6a8.89,8.89,0,0,0-6.09,5.55v0a7.8,7.8,0,0,0,4.53,10.06l39.47,14.92a4,4,0,0,0,5.16-2.32l14.93-39.47A7.79,7.79,0,0,1,402,278.18h0a8.71,8.71,0,0,1,5.45,6c1.09,4.55,3.72,8.13,7.59,9.59,7.46,2.82,16.68-3.27,20.59-13.6s1-21-6.44-23.81c-3.87-1.47-8.21-.52-12,2.16a8.68,8.68,0,0,1-8.07.92h0a7.78,7.78,0,0,1-4.53-10.05l14.92-39.48a4,4,0,0,0-2.32-5.15l-39.48-14.93a7.8,7.8,0,0,0-10.05,4.54Z" fill="#ffe04a"/>
  <path d="M142.53,307.2a8.72,8.72,0,0,0-8,1.29c-3.7,2.86-8,4-11.93,2.72-7.58-2.48-11-13-7.52-23.5s12.36-17,19.94-14.53c3.94,1.29,6.73,4.75,8,9.24a8.72,8.72,0,0,0,5.71,5.77h0a7.82,7.82,0,0,0,9.88-5l13.09-40.09a4,4,0,0,0-2.56-5L129.07,225a7.84,7.84,0,0,1-5-9.88h0a8.69,8.69,0,0,1,5.78-5.71c4.49-1.3,7.94-4.09,9.23-8,2.48-7.58-4-16.51-14.53-19.94s-21-.06-23.49,7.52c-1.29,3.94-.15,8.23,2.71,11.93a8.72,8.72,0,0,1,1.29,8h0a7.83,7.83,0,0,1-9.88,5L55.08,200.8a4,4,0,0,0-5,2.56L37,243.44a7.83,7.83,0,0,0,5,9.88h0A8.71,8.71,0,0,0,50,252c3.7-2.86,8-4,11.93-2.71,7.58,2.47,11,13,7.52,23.49s-12.35,17-19.94,14.53c-3.93-1.28-6.72-4.74-8-9.23a8.71,8.71,0,0,0-5.72-5.78h0a7.85,7.85,0,0,0-9.88,5L12.78,317.43a4,4,0,0,0,2.56,5.05l40.09,13.08a7.83,7.83,0,0,0,9.88-5h0a8.71,8.71,0,0,0-1.29-8c-2.86-3.7-4-8-2.72-11.93,2.48-7.58,13-11,23.5-7.52s17,12.35,14.53,19.94c-1.29,3.93-4.75,6.72-9.24,8a8.71,8.71,0,0,0-5.77,5.72h0a7.84,7.84,0,0,0,5,9.88l40.09,13.09a4,4,0,0,0,5-2.56l13.09-40.09a7.84,7.84,0,0,0-5-9.88Z" fill="#ffe04a"/>
  <path d="M204.84,172.88a8.7,8.7,0,0,0-4.31-6.89c-4.08-2.29-6.8-5.8-7.15-9.92-.68-7.95,7.7-15.15,18.71-16.09s20.47,4.76,21.14,12.7c.35,4.13-1.74,8-5.37,11a8.68,8.68,0,0,0-3.09,7.51h0a7.83,7.83,0,0,0,8.47,7.14l42-3.56a4,4,0,0,0,3.65-4.33l-3.57-42a7.85,7.85,0,0,1,7.15-8.47h0a8.72,8.72,0,0,1,7.51,3.09c2.95,3.63,6.87,5.73,11,5.38,7.95-.68,13.64-10.15,12.7-21.15s-8.13-19.39-16.08-18.71c-4.13.35-7.63,3.07-9.93,7.15a8.69,8.69,0,0,1-6.88,4.31h0a7.83,7.83,0,0,1-8.47-7.14l-3.57-42a4,4,0,0,0-4.32-3.65l-42,3.57A7.82,7.82,0,0,1,214,43.64h0A8.68,8.68,0,0,1,217,36.13c3.63-2.94,5.72-6.86,5.37-11-.67-7.95-10.14-13.63-21.15-12.7s-19.38,8.14-18.7,16.08c.35,4.13,3.07,7.64,7.15,9.93A8.73,8.73,0,0,1,194,45.34h0a7.84,7.84,0,0,1-7.15,8.47l-42,3.56a4,4,0,0,0-3.65,4.32l3.57,42a7.85,7.85,0,0,1-7.15,8.47h0a8.73,8.73,0,0,1-7.51-3.09c-3-3.63-6.86-5.73-11-5.38-7.95.68-13.64,10.14-12.7,21.15s8.13,19.38,16.08,18.71c4.13-.35,7.64-3.08,9.93-7.15a8.7,8.7,0,0,1,6.88-4.31h0a7.82,7.82,0,0,1,8.47,7.14l3.57,42a4,4,0,0,0,4.32,3.65l42-3.56a7.83,7.83,0,0,0,7.14-8.47Z" fill="#ffe04a"/>
  <path d="M249.51,421.29a8.7,8.7,0,0,0-6.44-5c-4.62-.73-8.39-3.07-10.15-6.82-3.4-7.22,2-16.88,12-21.58s20.85-2.66,24.24,4.55c1.76,3.75,1.16,8.15-1.22,12.18a8.7,8.7,0,0,0-.28,8.12h0A7.83,7.83,0,0,0,278,416.53l38.16-17.94a4,4,0,0,0,1.91-5.33l-17.94-38.15a7.84,7.84,0,0,0-10.43-3.76h0a8.71,8.71,0,0,0-5,6.44c-.74,4.62-3.08,8.39-6.83,10.15-7.22,3.4-16.88-1.95-21.58-11.95s-2.66-20.85,4.56-24.24c3.75-1.76,8.15-1.16,12.17,1.22a8.71,8.71,0,0,0,8.12.29h0A7.84,7.84,0,0,0,285,322.83l-18-38.15a4,4,0,0,0-5.32-1.92L223.55,300.7A7.83,7.83,0,0,1,213.13,297h0a8.71,8.71,0,0,1,.29-8.12c2.37-4,3-8.43,1.22-12.17-3.4-7.22-14.26-9.26-24.25-4.56S175,286.46,178.44,293.68c1.76,3.75,5.53,6.09,10.15,6.82a8.73,8.73,0,0,1,6.44,5h0a7.83,7.83,0,0,1-3.76,10.42l-38.15,17.95a4,4,0,0,0-1.92,5.32l18,38.16a7.84,7.84,0,0,0,10.42,3.75h0a8.69,8.69,0,0,0,5-6.43c.73-4.62,3.07-8.4,6.82-10.16,7.22-3.39,16.88,2,21.58,11.95s2.66,20.85-4.55,24.25c-3.75,1.76-8.15,1.16-12.18-1.22a8.71,8.71,0,0,0-8.12-.29h0a7.84,7.84,0,0,0-3.75,10.43l17.94,38.15a4,4,0,0,0,5.33,1.92l38.15-18a7.83,7.83,0,0,0,3.76-10.42Z" fill="#ffe04a"/>
  <path d="M344,74.07a8.69,8.69,0,0,0,5.43-6c1.08-4.55,3.71-8.14,7.58-9.61,7.45-2.84,16.68,3.23,20.61,13.55s1.07,21-6.38,23.83c-3.87,1.48-8.21.54-12.05-2.14a8.7,8.7,0,0,0-8.07-.9l0,0a7.8,7.8,0,0,0-4.52,10.06l15,39.44a4,4,0,0,0,5.16,2.31l39.44-15a7.79,7.79,0,0,1,10.06,4.51h0a8.54,8.54,0,0,1-.92,8c-2.77,3.88-3.83,8.33-2.34,12.25,2.84,7.46,13.47,10.33,23.79,6.4s16.37-13.15,13.54-20.61c-1.45-3.81-4.81-6.47-9.26-7.58a8.9,8.9,0,0,1-6.1-5.53l0,0a7.8,7.8,0,0,1,4.52-10.07l39.44-15a4,4,0,0,0,2.31-5.16l-15-39.44a7.81,7.81,0,0,0-10.07-4.51h0a8.71,8.71,0,0,0-5.43,6c-1.08,4.55-3.71,8.14-7.58,9.61-7.45,2.84-16.68-3.22-20.61-13.55s-1.07-21,6.38-23.83c3.87-1.47,8.21-.54,12.05,2.14a8.7,8.7,0,0,0,8.07.9h0A7.8,7.8,0,0,0,453.48,24l-15-39.43a4,4,0,0,0-5.16-2.32l-39.44,15A7.8,7.8,0,0,1,383.8-7.23l0,0a8.68,8.68,0,0,1,.91-8.07c2.67-3.84,3.61-8.18,2.13-12C384-34.83,373.32-37.69,363-33.76S346.6-20.6,349.44-13.14c1.48,3.86,5.06,6.49,9.61,7.57a8.69,8.69,0,0,1,6,5.43l0,0A7.81,7.81,0,0,1,360.59,10L321.15,25a4,4,0,0,0-2.31,5.16l15,39.44a7.8,7.8,0,0,0,10.07,4.51Z" fill="#ffe04a"/>
  <path d="M464.4,481.57c1.17-4-.09-8.23-3-11.85a8.67,8.67,0,0,1-1.51-8v0a7.8,7.8,0,0,1,9.69-5.26l40.46,12a4,4,0,0,0,5-2.69l12-40.46a7.8,7.8,0,0,0-5.26-9.7h0a8.73,8.73,0,0,0-8,1.51c-3.62,3-7.88,4.22-11.85,3-7.65-2.27-11.3-12.69-8.16-23.28s11.89-17.34,19.53-15.07c4,1.18,6.86,4.56,8.28,9a8.72,8.72,0,0,0,5.87,5.62h0a7.81,7.81,0,0,0,9.7-5.26l12-40.46a4,4,0,0,0-2.7-5l-40.46-12a7.81,7.81,0,0,1-5.26-9.7v0a9,9,0,0,1,5.69-6c4.34-1.45,7.54-4.33,8.7-8.23,2.27-7.65-4.52-16.4-15.11-19.54s-21,.5-23.3,8.15c-1.19,4,.28,8.41,3.33,12.06a8.52,8.52,0,0,1,1.52,7.86v0a7.81,7.81,0,0,1-9.7,5.27l-40.45-12a4,4,0,0,0-5,2.7l-12,40.46A7.8,7.8,0,0,1,404.7,360h0a8.74,8.74,0,0,1-5.87-5.62c-1.42-4.45-4.3-7.83-8.27-9-7.65-2.26-16.4,4.48-19.54,15.07s.51,21,8.16,23.28c4,1.18,8.23-.08,11.85-3a8.75,8.75,0,0,1,8-1.51h0a7.81,7.81,0,0,1,5.26,9.7l-12,40.46a4,4,0,0,0,2.7,5l40.45,12a7.8,7.8,0,0,1,5.26,9.7v0a8.68,8.68,0,0,1-5.61,5.87c-4.46,1.42-7.84,4.31-9,8.28-2.27,7.64,4.47,16.39,15.06,19.53S462.13,489.22,464.4,481.57Z" fill="#ffe04a"/>
  <path d="M746.15,237.31a9,9,0,0,0,4,7.23c3.84,2.49,6.21,6.08,6.35,10.14.28,8-8.49,14.75-19.53,15.13s-20.23-5.78-20.51-13.75c-.14-4.2,2.39-8.07,6.26-10.84a8.49,8.49,0,0,0,3.44-7.23v0a7.8,7.8,0,0,0-8.06-7.53l-42.18,1.45a4,4,0,0,0-3.86,4.13l1.45,42.18a7.8,7.8,0,0,1-7.53,8.06h0a8.7,8.7,0,0,1-7.35-3.46c-2.76-3.78-6.57-6.07-10.71-5.93-8,.28-14.13,9.45-13.75,20.49s7.15,19.76,15.12,19.49c4.14-.14,7.78-2.69,10.28-6.64a8.72,8.72,0,0,1,7.09-4h0a7.8,7.8,0,0,1,8.06,7.53l1.45,42.17a4,4,0,0,0,4.13,3.86l42.18-1.44a7.8,7.8,0,0,0,7.52-8.07h0a8.53,8.53,0,0,0-4-7c-4-2.5-6.75-6.18-6.9-10.38-.27-8,8.41-14.74,19.45-15.12s20.19,5.78,20.47,13.75c.14,4.07-1.92,7.82-5.6,10.57a8.94,8.94,0,0,0-3.48,7.47v0a7.82,7.82,0,0,0,8.07,7.53l42.17-1.45a4,4,0,0,0,3.86-4.14l-1.45-42.17a7.8,7.8,0,0,1,7.53-8.06h0a8.7,8.7,0,0,1,7.34,3.46c2.77,3.78,6.57,6.06,10.71,5.92,8-.27,14.13-9.44,13.75-20.48s-7.15-19.77-15.12-19.49c-4.14.14-7.78,2.68-10.28,6.64a8.71,8.71,0,0,1-7.09,4h0a7.8,7.8,0,0,1-8.07-7.53L800,231.63a4,4,0,0,0-4.14-3.87l-42.17,1.45a7.8,7.8,0,0,0-7.53,8.06Z" fill="#ffe04a"/>
  <path d="M92.66,488.12a8.72,8.72,0,0,0-8.08.89c-3.83,2.68-8.18,3.6-12,2.12-7.46-2.85-10.3-13.52-6.35-23.84s13.18-16.37,20.63-13.52c3.87,1.48,6.49,5.07,7.56,9.62a8.69,8.69,0,0,0,5.42,6.05h0a7.84,7.84,0,0,0,10.12-4.52L125,425.54a4,4,0,0,0-2.31-5.17L83.29,405.31a7.82,7.82,0,0,1-4.52-10.11h0a8.69,8.69,0,0,1,6-5.42c4.55-1.08,8.14-3.7,9.62-7.56,2.85-7.45-3.21-16.69-13.52-20.64s-21-1.1-23.84,6.35c-1.48,3.87-.55,8.21,2.12,12.05a8.7,8.7,0,0,1,.89,8.07h0A7.83,7.83,0,0,1,50,392.57L10.59,377.51a4,4,0,0,0-5.17,2.31L-9.64,419.2a7.84,7.84,0,0,0,4.52,10.12h0A8.72,8.72,0,0,0,3,428.43c3.83-2.67,8.18-3.6,12.05-2.12,7.45,2.85,10.29,13.52,6.34,23.84S8.17,466.52.72,463.67c-3.87-1.48-6.49-5.07-7.56-9.62A8.71,8.71,0,0,0-12.26,448h0a7.85,7.85,0,0,0-10.12,4.52L-37.44,491.9a4,4,0,0,0,2.31,5.17L4.25,512.13a7.84,7.84,0,0,0,10.12-4.52h0a8.7,8.7,0,0,0-.89-8.07c-2.67-3.84-3.6-8.19-2.12-12.05,2.85-7.45,13.52-10.3,23.84-6.35s16.37,13.18,13.52,20.63c-1.48,3.87-5.07,6.49-9.62,7.56a8.71,8.71,0,0,0-6.05,5.42h0a7.84,7.84,0,0,0,4.52,10.12L77,539.93a4,4,0,0,0,5.17-2.31l15.06-39.38a7.85,7.85,0,0,0-4.52-10.12Z" fill="#ffe04a"/>
  <path d="M558.78,182.72a8.72,8.72,0,0,0-3-7.54c-3.6-3-5.65-6.93-5.26-11.05.76-7.94,10.29-13.52,21.29-12.47S591.09,160,590.33,168c-.39,4.12-3.16,7.6-7.26,9.85a8.68,8.68,0,0,0-4.38,6.83h0a7.83,7.83,0,0,0,7,8.55l42,4a4,4,0,0,0,4.36-3.6l4-42a7.82,7.82,0,0,1,8.54-7h0a8.69,8.69,0,0,1,6.84,4.38c2.25,4.1,5.73,6.87,9.85,7.26,7.94.76,15.23-7.54,16.28-18.53s-4.53-20.53-12.47-21.29c-4.12-.39-8.06,1.66-11,5.26a8.72,8.72,0,0,1-7.54,3h0a7.84,7.84,0,0,1-7-8.55l4-42a4,4,0,0,0-3.6-4.37l-42-4a7.83,7.83,0,0,1-7.05-8.55h0a8.69,8.69,0,0,1,4.38-6.83c4.1-2.25,6.87-5.73,7.26-9.85C603.3,32.59,595,25.3,584,24.24s-20.53,4.53-21.29,12.47c-.39,4.12,1.66,8.06,5.26,11a8.73,8.73,0,0,1,3,7.55h0a7.85,7.85,0,0,1-8.55,7l-42-4a4,4,0,0,0-4.37,3.6l-4,42a7.83,7.83,0,0,1-8.54,7h0a8.68,8.68,0,0,1-6.84-4.39c-2.25-4.1-5.73-6.86-9.85-7.25-7.94-.76-15.23,7.53-16.29,18.53s4.53,20.52,12.47,21.28c4.13.4,8.07-1.65,11.05-5.25a8.7,8.7,0,0,1,7.55-3h0a7.84,7.84,0,0,1,7.05,8.55l-4,42a4,4,0,0,0,3.6,4.36l42,4a7.85,7.85,0,0,0,8.55-7.06Z" fill="#ffe04a"/>
  <path d="M530.78,283.66a8.73,8.73,0,0,0,0-8.12c-2.27-4.09-2.74-8.51-.87-12.2,3.6-7.12,14.51-8.85,24.37-3.86s14.92,14.8,11.32,21.92c-1.87,3.69-5.71,5.93-10.35,6.53a8.7,8.7,0,0,0-6.57,4.76h0a7.83,7.83,0,0,0,3.45,10.53l37.62,19a4,4,0,0,0,5.37-1.76l19-37.62a7.83,7.83,0,0,0-3.45-10.53h0a8.73,8.73,0,0,0-8.12,0c-4.09,2.27-8.51,2.74-12.21.87-7.11-3.6-8.84-14.51-3.85-24.37s14.8-14.92,21.92-11.32c3.69,1.87,5.92,5.71,6.52,10.35a8.72,8.72,0,0,0,4.77,6.57h0a7.83,7.83,0,0,0,10.53-3.45l19-37.62a4,4,0,0,0-1.76-5.37l-37.62-19a7.85,7.85,0,0,1-3.46-10.53h0a8.73,8.73,0,0,1,6.58-4.77c4.64-.6,8.48-2.83,10.35-6.53,3.6-7.12-1.47-16.93-11.32-21.92s-20.77-3.26-24.37,3.86c-1.87,3.69-1.4,8.11.87,12.2a8.75,8.75,0,0,1,.05,8.13h0a7.84,7.84,0,0,1-10.53,3.45l-37.62-19a4,4,0,0,0-5.38,1.76l-19,37.62a7.84,7.84,0,0,0,3.46,10.53h0a8.67,8.67,0,0,0,8.12-.05c4.09-2.26,8.51-2.74,12.2-.87,7.12,3.6,8.85,14.51,3.86,24.37s-14.8,14.92-21.92,11.32c-3.69-1.87-5.93-5.71-6.53-10.35a8.7,8.7,0,0,0-4.76-6.57h0a7.83,7.83,0,0,0-10.53,3.45l-19,37.62a4,4,0,0,0,1.76,5.38l37.62,19a7.84,7.84,0,0,0,10.53-3.46Z" fill="#ffe04a"/>
  <path d="M771.44,511.55a8.7,8.7,0,0,0,4.22-6.93c.23-4.67,2.15-8.68,5.68-10.84,6.81-4.16,17,.1,22.76,9.53s4.91,20.43-1.89,24.59c-3.54,2.16-8,2.05-12.24.12a8.69,8.69,0,0,0-8.1.6l0,0a7.79,7.79,0,0,0-2.58,10.72l22,36a4,4,0,0,0,5.5,1.33l36-22a7.81,7.81,0,0,1,10.73,2.59h0a8.53,8.53,0,0,1,.56,8c-2,4.32-2.24,8.89,0,12.47,4.16,6.81,15.13,7.68,24.56,1.91s13.67-15.94,9.51-22.74c-2.13-3.48-5.91-5.47-10.49-5.75a8.91,8.91,0,0,1-7-4.32l0,0a7.8,7.8,0,0,1,2.59-10.73l36-22a4,4,0,0,0,1.32-5.5l-22-36A7.8,7.8,0,0,0,877.74,470l0,0a8.69,8.69,0,0,0-4.23,6.93c-.23,4.68-2.14,8.68-5.68,10.84-6.8,4.16-17-.1-22.75-9.52s-4.92-20.44,1.89-24.6c3.53-2.16,8-2,12.23-.12a8.69,8.69,0,0,0,8.1-.6h0a7.81,7.81,0,0,0,2.59-10.73l-22-36a4,4,0,0,0-5.5-1.33l-36,22a7.79,7.79,0,0,1-10.72-2.59l0,0a8.69,8.69,0,0,1-.6-8.1c1.93-4.26,2.05-8.7-.11-12.23-4.17-6.81-15.18-7.65-24.6-1.89s-13.69,15.95-9.53,22.76c2.16,3.53,6.17,5.45,10.84,5.67a8.72,8.72,0,0,1,6.94,4.23v0A7.8,7.8,0,0,1,776,445.47l-36,22a4,4,0,0,0-1.33,5.49l22,36a7.81,7.81,0,0,0,10.73,2.58Z" fill="#ffe04a"/>
  <path d="M210.72-80a8.71,8.71,0,0,0,7.37-3.41c2.79-3.76,6.62-6,10.75-5.84,8,.33,14.06,9.55,13.6,20.59S235.14-49,227.17-49.34c-4.14-.17-7.76-2.74-10.23-6.72a8.72,8.72,0,0,0-7.06-4h0a7.81,7.81,0,0,0-8.13,7.46L200-10.44a4,4,0,0,0,3.83,4.16L246-4.51a7.8,7.8,0,0,1,7.46,8.12h0a8.53,8.53,0,0,1-4,7c-4.07,2.47-6.8,6.13-7,10.33-.33,8,8.3,14.8,19.33,15.27s20.24-5.63,20.57-13.6c.17-4.07-1.86-7.83-5.51-10.61a8.91,8.91,0,0,1-3.42-7.5v0A7.8,7.8,0,0,1,281.52-3l42.16,1.77a4,4,0,0,0,4.16-3.83l1.77-42.16a7.79,7.79,0,0,0-7.46-8.12h0a8.7,8.7,0,0,0-7.37,3.4c-2.79,3.76-6.62,6-10.75,5.84-8-.33-14.06-9.55-13.6-20.58s7.3-19.71,15.27-19.38c4.14.17,7.76,2.75,10.23,6.72a8.72,8.72,0,0,0,7.06,4h0a7.8,7.8,0,0,0,8.12-7.47L332.87-125a4,4,0,0,0-3.83-4.17l-42.16-1.77a7.8,7.8,0,0,1-7.47-8.12v0a8.7,8.7,0,0,1,4-7.06c4-2.47,6.55-6.09,6.72-10.23.33-8-8.34-14.8-19.38-15.27S250.52-166,250.19-158c-.18,4.13,2.08,8,5.83,10.75a8.71,8.71,0,0,1,3.41,7.37v0a7.8,7.8,0,0,1-8.12,7.47l-42.16-1.77a4,4,0,0,0-4.16,3.83l-1.77,42.16a7.79,7.79,0,0,0,7.46,8.12Z" fill="#ffe04a"/>
  <path d="M257.2,459.84a8.68,8.68,0,0,0,8.1-.61c3.93-2.54,8.31-3.31,12.12-1.7,7.35,3.1,9.82,13.87,5.52,24s-13.74,15.91-21.09,12.8c-3.81-1.61-6.31-5.28-7.22-9.87a8.71,8.71,0,0,0-5.21-6.23l0,0a7.8,7.8,0,0,0-10.22,4.15l-16.43,38.87a4,4,0,0,0,2.13,5.25l38.87,16.42a7.8,7.8,0,0,1,4.15,10.22h0a8.55,8.55,0,0,1-6.19,5.14c-4.68.88-8.53,3.36-10.16,7.23-3.11,7.35,2.59,16.77,12.76,21.07s20.92,1.82,24-5.53c1.58-3.75,1-8-1.45-11.87a8.92,8.92,0,0,1-.58-8.22v0a7.8,7.8,0,0,1,10.22-4.15l38.88,16.42a4,4,0,0,0,5.24-2.13l16.42-38.87A7.8,7.8,0,0,0,352.92,522h0a8.68,8.68,0,0,0-8.1.61c-3.93,2.54-8.3,3.31-12.11,1.7-7.35-3.1-9.82-13.87-5.52-24s13.74-15.91,21.08-12.8c3.82,1.61,6.31,5.28,7.23,9.87a8.69,8.69,0,0,0,5.21,6.23l0,0a7.8,7.8,0,0,0,10.22-4.15l16.42-38.87a4,4,0,0,0-2.12-5.25l-38.88-16.42a7.81,7.81,0,0,1-4.15-10.22l0,0a8.69,8.69,0,0,1,6.23-5.21c4.59-.92,8.27-3.41,9.88-7.22,3.1-7.35-2.63-16.79-12.8-21.09s-20.94-1.83-24,5.52c-1.61,3.81-.83,8.18,1.7,12.11a8.71,8.71,0,0,1,.62,8.1l0,0A7.79,7.79,0,0,1,313.56,425l-38.87-16.42a4,4,0,0,0-5.24,2.13L253,449.61a7.8,7.8,0,0,0,4.15,10.22Z" fill="#ffe04a"/>
  <path d="M674.92,200.56c-4.13.26-7.7,2.9-10.09,6.92a8.67,8.67,0,0,1-7,4.15h0a7.81,7.81,0,0,1-8.27-7.31L647,162.21a4,4,0,0,0-4.24-3.75l-42.12,2.6a7.8,7.8,0,0,0-7.3,8.27v0a8.72,8.72,0,0,0,4.15,7c4,2.39,6.67,6,6.92,10.09.49,8-8,15-19.07,15.65s-20.36-5.22-20.85-13.18c-.26-4.13,1.93-8,5.63-10.87a8.69,8.69,0,0,0,3.26-7.43v0a7.8,7.8,0,0,0-8.27-7.3l-42.12,2.59a4,4,0,0,0-3.74,4.24l2.59,42.12a7.8,7.8,0,0,1-7.3,8.27h0a9,9,0,0,1-7.58-3.29c-2.84-3.58-6.64-5.6-10.7-5.35-8,.49-13.87,9.87-13.19,20.89s7.69,19.59,15.65,19.1c4.2-.26,7.81-3.15,10.19-7.27a8.53,8.53,0,0,1,6.87-4.12h0a7.81,7.81,0,0,1,8.27,7.31l2.59,42.11a4,4,0,0,0,4.24,3.75l42.12-2.6a7.81,7.81,0,0,1,8.27,7.31v0a8.71,8.71,0,0,1-3.26,7.44c-3.7,2.86-5.88,6.73-5.63,10.87.49,8,9.83,13.86,20.85,13.18s19.57-7.69,19.07-15.65c-.25-4.13-2.89-7.7-6.91-10.09a8.7,8.7,0,0,1-4.16-7v0a7.81,7.81,0,0,1,7.31-8.27l42.12-2.6a4,4,0,0,0,3.74-4.24l-2.6-42.12a7.8,7.8,0,0,1,7.31-8.26h0a8.68,8.68,0,0,1,7.44,3.26c2.86,3.7,6.73,5.88,10.87,5.63,8-.5,13.86-9.83,13.18-20.86S682.88,200.07,674.92,200.56Z" fill="#f26941"/>
  <path d="M674.92,199.56c-4.13.26-7.7,2.9-10.09,6.92a8.67,8.67,0,0,1-7,4.15h0a7.81,7.81,0,0,1-8.27-7.31L647,161.21a4,4,0,0,0-4.24-3.75l-42.12,2.6a7.8,7.8,0,0,0-7.3,8.27v0a8.72,8.72,0,0,0,4.15,7c4,2.39,6.67,6,6.92,10.09.49,8-8,15-19.07,15.65s-20.36-5.22-20.85-13.18c-.26-4.13,1.93-8,5.63-10.87a8.69,8.69,0,0,0,3.26-7.43v0a7.8,7.8,0,0,0-8.27-7.3l-42.12,2.59a4,4,0,0,0-3.74,4.24l2.59,42.12a7.8,7.8,0,0,1-7.3,8.27h0a9,9,0,0,1-7.58-3.29c-2.84-3.58-6.64-5.6-10.7-5.35-8,.49-13.87,9.87-13.19,20.89s7.69,19.59,15.65,19.1c4.2-.26,7.81-3.15,10.19-7.27a8.53,8.53,0,0,1,6.87-4.12h0a7.81,7.81,0,0,1,8.27,7.31l2.59,42.11a4,4,0,0,0,4.24,3.75l42.12-2.6a7.81,7.81,0,0,1,8.27,7.31v0a8.71,8.71,0,0,1-3.26,7.44c-3.7,2.86-5.88,6.73-5.63,10.87.49,8,9.83,13.86,20.85,13.18s19.57-7.69,19.07-15.65c-.25-4.13-2.89-7.7-6.91-10.09a8.7,8.7,0,0,1-4.16-7v0a7.81,7.81,0,0,1,7.31-8.27l42.12-2.6a4,4,0,0,0,3.74-4.24l-2.6-42.12a7.8,7.8,0,0,1,7.31-8.26h0a8.68,8.68,0,0,1,7.44,3.26c2.86,3.7,6.73,5.88,10.87,5.63,8-.5,13.86-9.83,13.18-20.86S682.88,199.07,674.92,199.56Z" fill="#fff"/>
  <path d="M345.17,210.26a9,9,0,0,0,7.7-3c3-3.46,6.88-5.32,10.93-4.9,7.93.82,13.44,10.44,12.3,21.43s-8.5,19.24-16.43,18.42c-4.19-.43-7.67-3.47-9.88-7.68a8.5,8.5,0,0,0-6.69-4.4h0a7.8,7.8,0,0,0-8.56,7l-4.35,42a4,4,0,0,0,3.56,4.39l42,4.35a7.8,7.8,0,0,1,6.95,8.57v0a8.72,8.72,0,0,1-4.44,6.8c-4.12,2.22-6.91,5.68-7.34,9.8-.82,7.93,7.42,15.29,18.41,16.43s20.56-4.37,21.38-12.31c.43-4.12-1.59-8.07-5.17-11.09a8.73,8.73,0,0,1-2.95-7.57v0a7.81,7.81,0,0,1,8.57-7l42,4.35a4,4,0,0,0,4.39-3.56l4.35-42a7.79,7.79,0,0,0-6.95-8.56h0a8.56,8.56,0,0,0-7.49,2.95c-3,3.67-7.05,5.85-11.23,5.42-7.93-.83-13.45-10.36-12.31-21.35s8.49-19.2,16.43-18.38c4.05.42,7.48,3,9.71,7a8.91,8.91,0,0,0,6.92,4.47h0a7.8,7.8,0,0,0,8.56-7l4.35-42a4,4,0,0,0-3.56-4.39l-42-4.35a7.8,7.8,0,0,1-6.95-8.57v0a8.72,8.72,0,0,1,4.44-6.8c4.12-2.22,6.91-5.68,7.34-9.8.82-7.93-7.42-15.29-18.41-16.43s-20.56,4.37-21.38,12.31c-.43,4.12,1.59,8.07,5.17,11.09a8.73,8.73,0,0,1,2.95,7.57v0a7.81,7.81,0,0,1-8.57,7l-42-4.35a4,4,0,0,0-4.39,3.56l-4.35,42a7.79,7.79,0,0,0,6.95,8.56Z" fill="#f26941"/>
  <path d="M345.17,209.26a9,9,0,0,0,7.7-3c3-3.46,6.88-5.32,10.93-4.9,7.93.82,13.44,10.44,12.3,21.43s-8.5,19.24-16.43,18.42c-4.19-.43-7.67-3.47-9.88-7.68a8.5,8.5,0,0,0-6.69-4.4h0a7.8,7.8,0,0,0-8.56,7l-4.35,42a4,4,0,0,0,3.56,4.39l42,4.35a7.8,7.8,0,0,1,6.95,8.57v0a8.72,8.72,0,0,1-4.44,6.8c-4.12,2.22-6.91,5.68-7.34,9.8-.82,7.93,7.42,15.29,18.41,16.43s20.56-4.37,21.38-12.31c.43-4.12-1.59-8.07-5.17-11.09a8.73,8.73,0,0,1-2.95-7.57v0a7.81,7.81,0,0,1,8.57-7l42,4.35a4,4,0,0,0,4.39-3.56l4.35-42a7.79,7.79,0,0,0-6.95-8.56h0a8.56,8.56,0,0,0-7.49,2.95c-3,3.67-7.05,5.85-11.23,5.42-7.93-.83-13.45-10.36-12.31-21.35s8.49-19.2,16.43-18.38c4.05.42,7.48,3,9.71,7a8.91,8.91,0,0,0,6.92,4.47h0a7.8,7.8,0,0,0,8.56-7l4.35-42a4,4,0,0,0-3.56-4.39l-42-4.35a7.8,7.8,0,0,1-6.95-8.57v0a8.72,8.72,0,0,1,4.44-6.8c4.12-2.22,6.91-5.68,7.34-9.8.82-7.93-7.42-15.29-18.41-16.43s-20.56,4.37-21.38,12.31c-.43,4.12,1.59,8.07,5.17,11.09a8.73,8.73,0,0,1,2.95,7.57v0a7.81,7.81,0,0,1-8.57,7l-42-4.35a4,4,0,0,0-4.39,3.56l-4.35,42a7.79,7.79,0,0,0,6.95,8.56Z" fill="#fff"/>
  <path d="M209.12,283a8.73,8.73,0,0,0-4.59-6.71c-4.17-2.12-7-5.52-7.56-9.62-1-7.92,7.08-15.46,18-16.84s20.65,3.91,21.65,11.83c.52,4.1-1.41,8.1-4.92,11.2a8.69,8.69,0,0,0-2.78,7.63v0a7.81,7.81,0,0,0,8.72,6.77L279.55,282a4,4,0,0,0,3.46-4.47l-5.28-41.87a7.8,7.8,0,0,1,6.76-8.72h0a8.57,8.57,0,0,1,7.55,2.79c3.11,3.6,7.18,5.69,11.35,5.16,7.91-1,13.21-10.65,11.83-21.61s-8.92-19-16.84-18c-4,.51-7.41,3.14-9.54,7.2a9,9,0,0,1-6.82,4.63h0a7.8,7.8,0,0,1-8.71-6.76L268,158.45a4,4,0,0,0-4.47-3.46l-41.87,5.28a7.81,7.81,0,0,0-6.76,8.72v0a8.73,8.73,0,0,0,4.59,6.71c4.17,2.12,7,5.52,7.56,9.62,1,7.92-7.08,15.46-18,16.84s-20.65-3.91-21.65-11.83c-.52-4.1,1.41-8.1,4.92-11.2a8.69,8.69,0,0,0,2.78-7.63v0a7.81,7.81,0,0,0-8.72-6.77L144.45,170a4,4,0,0,0-3.46,4.47l5.28,41.87a7.8,7.8,0,0,1-6.76,8.72h0a8.68,8.68,0,0,1-7.63-2.78c-3.1-3.51-7.1-5.44-11.21-4.92-7.91,1-13.2,10.69-11.82,21.65s8.92,19,16.84,18c4.1-.52,7.5-3.38,9.62-7.55a8.73,8.73,0,0,1,6.7-4.59h0a7.8,7.8,0,0,1,8.71,6.76L156,293.55a4,4,0,0,0,4.47,3.46l41.87-5.28a7.81,7.81,0,0,0,6.76-8.72Z" fill="#f26941"/>
  <path d="M209.12,282a8.73,8.73,0,0,0-4.59-6.71c-4.17-2.12-7-5.52-7.56-9.62-1-7.92,7.08-15.46,18-16.84s20.65,3.91,21.65,11.83c.52,4.1-1.41,8.1-4.92,11.2a8.69,8.69,0,0,0-2.78,7.63v0a7.81,7.81,0,0,0,8.72,6.77L279.55,281a4,4,0,0,0,3.46-4.47l-5.28-41.87a7.8,7.8,0,0,1,6.76-8.72h0a8.57,8.57,0,0,1,7.55,2.79c3.11,3.6,7.18,5.69,11.35,5.16,7.91-1,13.21-10.65,11.83-21.61s-8.92-19-16.84-18c-4,.51-7.41,3.14-9.54,7.2a9,9,0,0,1-6.82,4.63h0a7.8,7.8,0,0,1-8.71-6.76L268,157.45a4,4,0,0,0-4.47-3.46l-41.87,5.28a7.81,7.81,0,0,0-6.76,8.72v0a8.73,8.73,0,0,0,4.59,6.71c4.17,2.12,7,5.52,7.56,9.62,1,7.92-7.08,15.46-18,16.84s-20.65-3.91-21.65-11.83c-.52-4.1,1.41-8.1,4.92-11.2a8.69,8.69,0,0,0,2.78-7.63v0a7.81,7.81,0,0,0-8.72-6.77L144.45,169a4,4,0,0,0-3.46,4.47l5.28,41.87a7.8,7.8,0,0,1-6.76,8.72h0a8.68,8.68,0,0,1-7.63-2.78c-3.1-3.51-7.1-5.44-11.21-4.92-7.91,1-13.2,10.69-11.82,21.65s8.92,19,16.84,18c4.1-.52,7.5-3.38,9.62-7.55a8.73,8.73,0,0,1,6.7-4.59h0a7.8,7.8,0,0,1,8.71,6.76L156,292.55a4,4,0,0,0,4.47,3.46l41.87-5.28a7.81,7.81,0,0,0,6.76-8.72Z" fill="#fff"/>
</svg>
