<?xml version="1.0" encoding="utf-8"?><svg xmlns="http://www.w3.org/2000/svg" viewBox="0 0 800 450"><defs><style>.bf66318e-820f-4527-a4b3-70c0e63503e2{fill:#0f1c3f;}.e29536bf-b184-4f7e-b93b-250375195fa3{fill:#e1ebff;}.b5831617-f81c-46d7-8b90-ad08c92777c7{fill:none;stroke:#456bd9;stroke-linecap:round;stroke-linejoin:round;stroke-width:30px;}</style></defs><title>see-no-evil</title><g id="ec923bab-83ba-4af0-824f-ec48ba273460" data-name="Background"><rect class="bf66318e-820f-4527-a4b3-70c0e63503e2" width="800" height="450"/></g><g id="ae0df16a-fd6f-4ccf-8eef-27b6204c73fa" data-name="Eyeball"><path class="e29536bf-b184-4f7e-b93b-250375195fa3" d="M399.94,133.79c-34.42,0-69.22,33.61-69.22,33.61l-51.35,49.85,51.35,49.84s34.8,33.62,69.22,33.62,69.22-33.62,69.22-33.62l51.35-49.84L469.16,167.4S434.35,133.79,399.94,133.79Z" transform="translate(0.06)"/><path class="e29536bf-b184-4f7e-b93b-250375195fa3" d="M399.94,315.71c-17.21,0-35.94-6.47-55.66-19.21a171.3,171.3,0,0,1-24-18.62l-62.47-60.63,62.44-60.61c1.63-1.57,39.65-37.85,79.67-37.85,17.21,0,35.93,6.46,55.66,19.21a173.31,173.31,0,0,1,24,18.61l62.47,60.64-62.44,60.61C478,279.43,440,315.71,399.94,315.71Zm-99-98.46,40.27,39.08c8.48,8.14,35.67,29.38,58.77,29.38,11.18,0,24.79-5,39.37-14.41a144.08,144.08,0,0,0,19.43-15L499,217.25l-40.26-39.08c-8.48-8.14-35.68-29.38-58.77-29.38S349.65,170,341.12,178.21Z" transform="translate(0.06)"/><circle class="bf66318e-820f-4527-a4b3-70c0e63503e2" cx="400" cy="217.25" r="49.84"/><circle class="e29536bf-b184-4f7e-b93b-250375195fa3" cx="382.36" cy="199.61" r="16.64"/></g><g id="fd855214-54d2-429e-9e5c-5d4f441611b7" data-name="Code"><polyline class="b5831617-f81c-46d7-8b90-ad08c92777c7" points="263.13 148.64 194.52 215.24 261.12 283.85"/><polyline class="b5831617-f81c-46d7-8b90-ad08c92777c7" points="536.87 148.64 605.48 215.24 538.88 283.85"/></g></svg>
